{
	"asset":{
		"generator":"Khronos glTF Blender I/O v5.0.21",
		"version":"2.0"
	},
	"scene":0,
	"scenes":[
		{
			"name":"Scene",
			"nodes":[
				0,
				1,
				2,
				3,
				4,
				5,
				6,
				7,
				8,
				9,
				10,
				11,
				12,
				13,
				14,
				15,
				16,
				17,
				18,
				19,
				20,
				21,
				22,
				23,
				24,
				25,
				26,
				27,
				28,
				29,
				30
			]
		}
	],
	"nodes":[
		{
			"mesh":0,
			"name":"\u7acb\u65b9\u4f53",
			"scale":[
				5.359421730041504,
				1,
				7.7878007888793945
			],
			"translation":[
				0.08259356021881104,
				3.3475327491760254,
				-0.09632682800292969
			]
		},
		{
			"mesh":1,
			"name":"\u7403",
			"rotation":[
				0.00010457015014253557,
				-0.0001487732952227816,
				0.0007440343615598977,
				1
			],
			"scale":[
				0.7671604156494141,
				0.7671604156494141,
				0.7671604156494141
			],
			"translation":[
				-4.51930570602417,
				2.02561354637146,
				7.353244781494141
			]
		},
		{
			"mesh":2,
			"name":"\u7acb\u65b9\u4f53.001",
			"scale":[
				3.802441120147705,
				1,
				3.802441120147705
			],
			"translation":[
				-15.342140197753906,
				0.46980899572372437,
				-2.3746957778930664
			]
		},
		{
			"mesh":3,
			"name":"\u7acb\u65b9\u4f53.002",
			"rotation":[
				0,
				0.9564461708068848,
				0,
				0.2919091284275055
			],
			"scale":[
				3.802441120147705,
				1,
				3.802441120147705
			],
			"translation":[
				0.9801817536354065,
				2.3115057945251465,
				0.3652602434158325
			]
		},
		{
			"mesh":4,
			"name":"\u7acb\u65b9\u4f53.003",
			"scale":[
				3.802441120147705,
				1,
				3.802441120147705
			],
			"translation":[
				-11.802334785461426,
				0.46980881690979004,
				-0.811785876750946
			]
		},
		{
			"mesh":5,
			"name":"\u7acb\u65b9\u4f53.004",
			"rotation":[
				0.00010457015741849318,
				-0.0001487732952227816,
				0.0007440343615598977,
				1
			],
			"scale":[
				3.5004420280456543,
				0.7892809510231018,
				4.52909517288208
			],
			"translation":[
				0.046593427658081055,
				0.4748779535293579,
				-0.10604166984558105
			]
		},
		{
			"mesh":6,
			"name":"\u7acb\u65b9\u4f53.005",
			"scale":[
				3.802441120147705,
				1,
				3.802441120147705
			],
			"translation":[
				-12.5718994140625,
				0.4465169310569763,
				-2.459221124649048
			]
		},
		{
			"mesh":7,
			"name":"\u7acb\u65b9\u4f53.006",
			"scale":[
				3.802441120147705,
				1,
				3.802441120147705
			],
			"translation":[
				-13.733207702636719,
				0.2209566831588745,
				-3.426424980163574
			]
		},
		{
			"mesh":8,
			"name":"\u7acb\u65b9\u4f53.007",
			"scale":[
				3.802441120147705,
				1,
				3.802441120147705
			],
			"translation":[
				-14.8616943359375,
				0.41798150539398193,
				-3.290013074874878
			]
		},
		{
			"mesh":9,
			"name":"\u7acb\u65b9\u4f53.008",
			"scale":[
				3.802441120147705,
				1,
				3.802441120147705
			],
			"translation":[
				-11.738582611083984,
				0.4698089361190796,
				1.149789571762085
			]
		},
		{
			"mesh":10,
			"name":"\u7acb\u65b9\u4f53.009",
			"scale":[
				3.802441120147705,
				1,
				3.802441120147705
			],
			"translation":[
				-13.961679458618164,
				0.4698089361190796,
				-0.24033692479133606
			]
		},
		{
			"mesh":11,
			"name":"\u7acb\u65b9\u4f53.010",
			"scale":[
				3.802441120147705,
				1,
				3.802441120147705
			],
			"translation":[
				-17.017229080200195,
				0.4698088765144348,
				-2.368757963180542
			]
		},
		{
			"mesh":12,
			"name":"\u7acb\u65b9\u4f53.011",
			"rotation":[
				0.33501946926116943,
				0.1858961284160614,
				-0.721928596496582,
				0.5762149691581726
			],
			"scale":[
				2.08040714263916,
				0.5471241474151611,
				2.0804073810577393
			],
			"translation":[
				-1.5627995729446411,
				3.5987815856933594,
				0.06482863426208496
			]
		},
		{
			"mesh":13,
			"name":"\u7acb\u65b9\u4f53.012",
			"scale":[
				3.802441120147705,
				1,
				3.802441120147705
			],
			"translation":[
				-17.5618896484375,
				0.4698088765144348,
				-0.29447421431541443
			]
		},
		{
			"mesh":14,
			"name":"\u7acb\u65b9\u4f53.013",
			"scale":[
				3.802441120147705,
				1,
				3.802441120147705
			],
			"translation":[
				-12.789007186889648,
				0.4698088765144348,
				0.4191557466983795
			]
		},
		{
			"mesh":15,
			"name":"\u7acb\u65b9\u4f53.014",
			"rotation":[
				0,
				-0.9908248782157898,
				0,
				0.13515214622020721
			],
			"scale":[
				3.802440881729126,
				1,
				3.802440881729126
			],
			"translation":[
				-0.037759989500045776,
				4.306837558746338,
				-0.3617367744445801
			]
		},
		{
			"mesh":16,
			"name":"\u7acb\u65b9\u4f53.015",
			"rotation":[
				0,
				0.39245614409446716,
				0,
				0.9197707176208496
			],
			"scale":[
				3.802441120147705,
				1,
				3.802441120147705
			],
			"translation":[
				-0.9494957327842712,
				2.31046724319458,
				-0.504327654838562
			]
		},
		{
			"mesh":17,
			"name":"\u7acb\u65b9\u4f53.016",
			"scale":[
				3.802441120147705,
				1,
				3.802441120147705
			],
			"translation":[
				-14.127006530761719,
				0.5309537649154663,
				-2.916367292404175
			]
		},
		{
			"mesh":18,
			"name":"\u7acb\u65b9\u4f53.017",
			"scale":[
				3.802441120147705,
				1,
				3.802441120147705
			],
			"translation":[
				-16.181612014770508,
				0.4698089361190796,
				2.208697557449341
			]
		},
		{
			"mesh":19,
			"name":"\u7acb\u65b9\u4f53.018",
			"scale":[
				3.802441120147705,
				1,
				3.802441120147705
			],
			"translation":[
				-13.5230073928833,
				0.4698089361190796,
				2.5470569133758545
			]
		},
		{
			"mesh":20,
			"name":"\u7acb\u65b9\u4f53.019",
			"scale":[
				3.802441120147705,
				1,
				3.802441120147705
			],
			"translation":[
				-15.836352348327637,
				0.417089581489563,
				-3.040968418121338
			]
		},
		{
			"mesh":21,
			"name":"\u7acb\u65b9\u4f53.020",
			"rotation":[
				0.00010111991286976263,
				0.00448692636564374,
				0.000744511082302779,
				0.9999897480010986
			],
			"scale":[
				8.550557136535645,
				1,
				4.983838081359863
			],
			"translation":[
				0.08703958988189697,
				1.370097279548645,
				-0.19676220417022705
			]
		},
		{
			"mesh":22,
			"name":"\u7acb\u65b9\u4f53.021",
			"rotation":[
				0,
				-0.9403772950172424,
				0,
				0.3401331603527069
			],
			"scale":[
				2.8629062175750732,
				1,
				2.8629062175750732
			],
			"translation":[
				-0.4637990891933441,
				2.346442461013794,
				0.7273136377334595
			]
		},
		{
			"mesh":23,
			"name":"\u7acb\u65b9\u4f53.022",
			"rotation":[
				0,
				0.4000030755996704,
				0,
				0.9165138006210327
			],
			"scale":[
				4.3202362060546875,
				1,
				4.410954475402832
			],
			"translation":[
				0.2943089008331299,
				2.33904767036438,
				-0.9965369701385498
			]
		},
		{
			"mesh":24,
			"name":"\u7acb\u65b9\u4f53.023",
			"rotation":[
				0.6615063548088074,
				0.13874022662639618,
				0.15168535709381104,
				0.7212156653404236
			],
			"scale":[
				1.5892833471298218,
				0.6017009615898132,
				1.8593932390213013
			],
			"translation":[
				-1.7893298864364624,
				2.899749279022217,
				0.04643988981842995
			]
		},
		{
			"mesh":25,
			"name":"\u7acb\u65b9\u4f53.024",
			"rotation":[
				-0.04005530849099159,
				-0.001780385384336114,
				0.9923702478408813,
				0.11659219115972519
			],
			"scale":[
				3.802441120147705,
				1,
				3.802441120147705
			],
			"translation":[
				-2.0484273433685303,
				2.0303456783294678,
				0.06423139572143555
			]
		},
		{
			"mesh":26,
			"name":"\u7acb\u65b9\u4f53.025",
			"rotation":[
				-0.21789419651031494,
				0.359617680311203,
				0.8080847263336182,
				0.41254857182502747
			],
			"scale":[
				2.267162561416626,
				0.5962386131286621,
				2.267162561416626
			],
			"translation":[
				1.6307649612426758,
				3.61191987991333,
				0.06423139572143555
			]
		},
		{
			"mesh":27,
			"name":"\u7acb\u65b9\u4f53.026",
			"rotation":[
				0.31764161586761475,
				-0.5966098308563232,
				-0.6503437757492065,
				0.3467181622982025
			],
			"scale":[
				1.5892833471298218,
				0.6017009615898132,
				1.8593933582305908
			],
			"translation":[
				1.909658670425415,
				2.932111978530884,
				0.04643988609313965
			]
		},
		{
			"mesh":28,
			"name":"\u7acb\u65b9\u4f53.027",
			"rotation":[
				-0.04398588836193085,
				0.41140010952949524,
				0.8009077906608582,
				0.4328533113002777
			],
			"scale":[
				3.802441120147705,
				1,
				3.802440881729126
			],
			"translation":[
				2.3000175952911377,
				1.9816009998321533,
				0.06482863426208496
			]
		},
		{
			"mesh":29,
			"name":"\u7acb\u65b9\u4f53.028",
			"scale":[
				3.802441120147705,
				1,
				3.802441120147705
			],
			"translation":[
				-12.5718994140625,
				0.4465169310569763,
				-2.459221124649048
			]
		},
		{
			"mesh":30,
			"name":"BossHead"
		}
	],
	"meshes":[
		{
			"name":"\u7acb\u65b9\u4f53.001",
			"primitives":[
				{
					"attributes":{
						"POSITION":0,
						"NORMAL":1,
						"TEXCOORD_0":2
					},
					"indices":3
				}
			]
		},
		{
			"name":"\u7403.001",
			"primitives":[
				{
					"attributes":{
						"POSITION":4,
						"NORMAL":5,
						"TEXCOORD_0":6
					},
					"indices":7
				}
			]
		},
		{
			"name":"\u7acb\u65b9\u4f53.003",
			"primitives":[
				{
					"attributes":{
						"POSITION":8,
						"NORMAL":9,
						"TEXCOORD_0":10
					},
					"indices":11
				}
			]
		},
		{
			"name":"\u7acb\u65b9\u4f53.004",
			"primitives":[
				{
					"attributes":{
						"POSITION":12,
						"NORMAL":13,
						"TEXCOORD_0":14
					},
					"indices":15
				}
			]
		},
		{
			"name":"\u7acb\u65b9\u4f53.005",
			"primitives":[
				{
					"attributes":{
						"POSITION":16,
						"NORMAL":17,
						"TEXCOORD_0":18
					},
					"indices":19
				}
			]
		},
		{
			"name":"\u7acb\u65b9\u4f53.006",
			"primitives":[
				{
					"attributes":{
						"POSITION":20,
						"NORMAL":21,
						"TEXCOORD_0":22
					},
					"indices":23
				}
			]
		},
		{
			"name":"\u7acb\u65b9\u4f53.007",
			"primitives":[
				{
					"attributes":{
						"POSITION":24,
						"NORMAL":25,
						"TEXCOORD_0":26
					},
					"indices":27
				}
			]
		},
		{
			"name":"\u7acb\u65b9\u4f53.008",
			"primitives":[
				{
					"attributes":{
						"POSITION":28,
						"NORMAL":29,
						"TEXCOORD_0":30
					},
					"indices":31
				}
			]
		},
		{
			"name":"\u7acb\u65b9\u4f53.009",
			"primitives":[
				{
					"attributes":{
						"POSITION":32,
						"NORMAL":33,
						"TEXCOORD_0":34
					},
					"indices":35
				}
			]
		},
		{
			"name":"\u7acb\u65b9\u4f53.010",
			"primitives":[
				{
					"attributes":{
						"POSITION":36,
						"NORMAL":37,
						"TEXCOORD_0":38
					},
					"indices":39
				}
			]
		},
		{
			"name":"\u7acb\u65b9\u4f53.011",
			"primitives":[
				{
					"attributes":{
						"POSITION":40,
						"NORMAL":41,
						"TEXCOORD_0":42
					},
					"indices":43
				}
			]
		},
		{
			"name":"\u7acb\u65b9\u4f53.012",
			"primitives":[
				{
					"attributes":{
						"POSITION":44,
						"NORMAL":45,
						"TEXCOORD_0":46
					},
					"indices":47
				}
			]
		},
		{
			"name":"\u7acb\u65b9\u4f53.013",
			"primitives":[
				{
					"attributes":{
						"POSITION":48,
						"NORMAL":49,
						"TEXCOORD_0":50
					},
					"indices":51
				}
			]
		},
		{
			"name":"\u7acb\u65b9\u4f53.014",
			"primitives":[
				{
					"attributes":{
						"POSITION":52,
						"NORMAL":53,
						"TEXCOORD_0":54
					},
					"indices":55
				}
			]
		},
		{
			"name":"\u7acb\u65b9\u4f53.015",
			"primitives":[
				{
					"attributes":{
						"POSITION":56,
						"NORMAL":57,
						"TEXCOORD_0":58
					},
					"indices":59
				}
			]
		},
		{
			"name":"\u7acb\u65b9\u4f53.016",
			"primitives":[
				{
					"attributes":{
						"POSITION":60,
						"NORMAL":61,
						"TEXCOORD_0":62
					},
					"indices":63
				}
			]
		},
		{
			"name":"\u7acb\u65b9\u4f53.017",
			"primitives":[
				{
					"attributes":{
						"POSITION":64,
						"NORMAL":65,
						"TEXCOORD_0":66
					},
					"indices":67
				}
			]
		},
		{
			"name":"\u7acb\u65b9\u4f53.018",
			"primitives":[
				{
					"attributes":{
						"POSITION":68,
						"NORMAL":69,
						"TEXCOORD_0":70
					},
					"indices":71
				}
			]
		},
		{
			"name":"\u7acb\u65b9\u4f53.019",
			"primitives":[
				{
					"attributes":{
						"POSITION":72,
						"NORMAL":73,
						"TEXCOORD_0":74
					},
					"indices":75
				}
			]
		},
		{
			"name":"\u7acb\u65b9\u4f53.020",
			"primitives":[
				{
					"attributes":{
						"POSITION":76,
						"NORMAL":77,
						"TEXCOORD_0":78
					},
					"indices":79
				}
			]
		},
		{
			"name":"\u7acb\u65b9\u4f53.021",
			"primitives":[
				{
					"attributes":{
						"POSITION":80,
						"NORMAL":81,
						"TEXCOORD_0":82
					},
					"indices":83
				}
			]
		},
		{
			"name":"\u7acb\u65b9\u4f53.026",
			"primitives":[
				{
					"attributes":{
						"POSITION":84,
						"NORMAL":85,
						"TEXCOORD_0":86
					},
					"indices":87
				}
			]
		},
		{
			"name":"\u7acb\u65b9\u4f53.027",
			"primitives":[
				{
					"attributes":{
						"POSITION":88,
						"NORMAL":89,
						"TEXCOORD_0":90
					},
					"indices":91
				}
			]
		},
		{
			"name":"\u7acb\u65b9\u4f53.028",
			"primitives":[
				{
					"attributes":{
						"POSITION":92,
						"NORMAL":93,
						"TEXCOORD_0":94
					},
					"indices":95
				}
			]
		},
		{
			"name":"\u7acb\u65b9\u4f53.029",
			"primitives":[
				{
					"attributes":{
						"POSITION":96,
						"NORMAL":97,
						"TEXCOORD_0":98
					},
					"indices":99
				}
			]
		},
		{
			"name":"\u7acb\u65b9\u4f53.030",
			"primitives":[
				{
					"attributes":{
						"POSITION":100,
						"NORMAL":101,
						"TEXCOORD_0":102
					},
					"indices":103
				}
			]
		},
		{
			"name":"\u7acb\u65b9\u4f53.031",
			"primitives":[
				{
					"attributes":{
						"POSITION":104,
						"NORMAL":105,
						"TEXCOORD_0":106
					},
					"indices":103
				}
			]
		},
		{
			"name":"\u7acb\u65b9\u4f53.032",
			"primitives":[
				{
					"attributes":{
						"POSITION":107,
						"NORMAL":108,
						"TEXCOORD_0":109
					},
					"indices":99
				}
			]
		},
		{
			"name":"\u7acb\u65b9\u4f53.033",
			"primitives":[
				{
					"attributes":{
						"POSITION":110,
						"NORMAL":111,
						"TEXCOORD_0":112
					},
					"indices":51
				}
			]
		},
		{
			"name":"\u7acb\u65b9\u4f53.034",
			"primitives":[
				{
					"attributes":{
						"POSITION":113,
						"NORMAL":114,
						"TEXCOORD_0":115
					},
					"indices":27
				}
			]
		},
		{
			"name":"\u7acb\u65b9\u4f53.002",
			"primitives":[
				{
					"attributes":{
						"POSITION":116,
						"NORMAL":117,
						"TEXCOORD_0":118
					},
					"indices":119
				}
			]
		}
	],
	"accessors":[
		{
			"bufferView":0,
			"componentType":5126,
			"count":88,
			"max":[
				0.22269493341445923,
				0.4744741916656494,
				0.20758317410945892
			],
			"min":[
				-0.2509104609489441,
				-0.4744739532470703,
				-0.16821400821208954
			],
			"type":"VEC3"
		},
		{
			"bufferView":1,
			"componentType":5126,
			"count":88,
			"type":"VEC3"
		},
		{
			"bufferView":2,
			"componentType":5126,
			"count":88,
			"type":"VEC2"
		},
		{
			"bufferView":3,
			"componentType":5123,
			"count":144,
			"type":"SCALAR"
		},
		{
			"bufferView":4,
			"componentType":5126,
			"count":60,
			"max":[
				0.75,
				1,
				0.866025447845459
			],
			"min":[
				-0.7500001192092896,
				-1,
				-0.8660255074501038
			],
			"type":"VEC3"
		},
		{
			"bufferView":5,
			"componentType":5126,
			"count":60,
			"type":"VEC3"
		},
		{
			"bufferView":6,
			"componentType":5126,
			"count":60,
			"type":"VEC2"
		},
		{
			"bufferView":7,
			"componentType":5123,
			"count":72,
			"type":"SCALAR"
		},
		{
			"bufferView":8,
			"componentType":5126,
			"count":24,
			"max":[
				0.2162325531244278,
				0.4744740128517151,
				0.18342489004135132
			],
			"min":[
				-0.2729003131389618,
				-0.47447413206100464,
				-0.14465218782424927
			],
			"type":"VEC3"
		},
		{
			"bufferView":9,
			"componentType":5126,
			"count":24,
			"type":"VEC3"
		},
		{
			"bufferView":10,
			"componentType":5126,
			"count":24,
			"type":"VEC2"
		},
		{
			"bufferView":11,
			"componentType":5123,
			"count":36,
			"type":"SCALAR"
		},
		{
			"bufferView":12,
			"componentType":5126,
			"count":74,
			"max":[
				0.20678210258483887,
				0.47447413206100464,
				0.21474125981330872
			],
			"min":[
				-0.19301837682724,
				-0.4744740128517151,
				-0.2803567051887512
			],
			"type":"VEC3"
		},
		{
			"bufferView":13,
			"componentType":5126,
			"count":74,
			"type":"VEC3"
		},
		{
			"bufferView":14,
			"componentType":5126,
			"count":74,
			"type":"VEC2"
		},
		{
			"bufferView":15,
			"componentType":5123,
			"count":120,
			"type":"SCALAR"
		},
		{
			"bufferView":16,
			"componentType":5126,
			"count":36,
			"max":[
				0.15835005044937134,
				0.4744741916656494,
				0.24847003817558289
			],
			"min":[
				-0.12253761291503906,
				-0.4744739532470703,
				-0.2907624840736389
			],
			"type":"VEC3"
		},
		{
			"bufferView":17,
			"componentType":5126,
			"count":36,
			"type":"VEC3"
		},
		{
			"bufferView":18,
			"componentType":5126,
			"count":36,
			"type":"VEC2"
		},
		{
			"bufferView":19,
			"componentType":5123,
			"count":60,
			"type":"SCALAR"
		},
		{
			"bufferView":20,
			"componentType":5126,
			"count":120,
			"max":[
				0.26908382773399353,
				0.47447413206100464,
				0.22799724340438843
			],
			"min":[
				-0.29598113894462585,
				-0.4744740128517151,
				-0.20861180126667023
			],
			"type":"VEC3"
		},
		{
			"bufferView":21,
			"componentType":5126,
			"count":120,
			"type":"VEC3"
		},
		{
			"bufferView":22,
			"componentType":5126,
			"count":120,
			"type":"VEC2"
		},
		{
			"bufferView":23,
			"componentType":5123,
			"count":210,
			"type":"SCALAR"
		},
		{
			"bufferView":24,
			"componentType":5126,
			"count":42,
			"max":[
				0.30110180377960205,
				0.49776607751846313,
				0.2524690330028534
			],
			"min":[
				-0.24414417147636414,
				-0.4511820673942566,
				-0.2287989854812622
			],
			"type":"VEC3"
		},
		{
			"bufferView":25,
			"componentType":5126,
			"count":42,
			"type":"VEC3"
		},
		{
			"bufferView":26,
			"componentType":5126,
			"count":42,
			"type":"VEC2"
		},
		{
			"bufferView":27,
			"componentType":5123,
			"count":72,
			"type":"SCALAR"
		},
		{
			"bufferView":28,
			"componentType":5126,
			"count":24,
			"max":[
				0.2335326373577118,
				0.4221637547016144,
				0.0406377911567688
			],
			"min":[
				-0.1635943353176117,
				-0.22562181949615479,
				-0.02854996919631958
			],
			"type":"VEC3"
		},
		{
			"bufferView":29,
			"componentType":5126,
			"count":24,
			"type":"VEC3"
		},
		{
			"bufferView":30,
			"componentType":5126,
			"count":24,
			"type":"VEC2"
		},
		{
			"bufferView":31,
			"componentType":5123,
			"count":36,
			"type":"SCALAR"
		},
		{
			"bufferView":32,
			"componentType":5126,
			"count":24,
			"max":[
				0.14052318036556244,
				0.5263015031814575,
				0.08194679021835327
			],
			"min":[
				-0.16761720180511475,
				-0.4226466417312622,
				-0.058168113231658936
			],
			"type":"VEC3"
		},
		{
			"bufferView":33,
			"componentType":5126,
			"count":24,
			"type":"VEC3"
		},
		{
			"bufferView":34,
			"componentType":5126,
			"count":24,
			"type":"VEC2"
		},
		{
			"bufferView":35,
			"componentType":5123,
			"count":36,
			"type":"SCALAR"
		},
		{
			"bufferView":36,
			"componentType":5126,
			"count":36,
			"max":[
				0.14150458574295044,
				0.47447407245635986,
				0.3186812698841095
			],
			"min":[
				-0.12149918079376221,
				-0.47447407245635986,
				-0.3658832609653473
			],
			"type":"VEC3"
		},
		{
			"bufferView":37,
			"componentType":5126,
			"count":36,
			"type":"VEC3"
		},
		{
			"bufferView":38,
			"componentType":5126,
			"count":36,
			"type":"VEC2"
		},
		{
			"bufferView":39,
			"componentType":5123,
			"count":60,
			"type":"SCALAR"
		},
		{
			"bufferView":40,
			"componentType":5126,
			"count":24,
			"max":[
				0.17895090579986572,
				0.47447407245635986,
				0.1685122400522232
			],
			"min":[
				-0.25649648904800415,
				-0.47447407245635986,
				-0.23114508390426636
			],
			"type":"VEC3"
		},
		{
			"bufferView":41,
			"componentType":5126,
			"count":24,
			"type":"VEC3"
		},
		{
			"bufferView":42,
			"componentType":5126,
			"count":24,
			"type":"VEC2"
		},
		{
			"bufferView":43,
			"componentType":5123,
			"count":36,
			"type":"SCALAR"
		},
		{
			"bufferView":44,
			"componentType":5126,
			"count":36,
			"max":[
				0.16455182433128357,
				0.47447413206100464,
				0.16261422634124756
			],
			"min":[
				-0.2318781018257141,
				-0.4744740128517151,
				-0.25053870677948
			],
			"type":"VEC3"
		},
		{
			"bufferView":45,
			"componentType":5126,
			"count":36,
			"type":"VEC3"
		},
		{
			"bufferView":46,
			"componentType":5126,
			"count":36,
			"type":"VEC2"
		},
		{
			"bufferView":47,
			"componentType":5123,
			"count":60,
			"type":"SCALAR"
		},
		{
			"bufferView":48,
			"componentType":5126,
			"count":112,
			"max":[
				0.14444364607334137,
				0.47447407245635986,
				0.22667135298252106
			],
			"min":[
				-0.1344340443611145,
				-0.47447407245635986,
				-0.14867009222507477
			],
			"type":"VEC3"
		},
		{
			"bufferView":49,
			"componentType":5126,
			"count":112,
			"type":"VEC3"
		},
		{
			"bufferView":50,
			"componentType":5126,
			"count":112,
			"type":"VEC2"
		},
		{
			"bufferView":51,
			"componentType":5123,
			"count":192,
			"type":"SCALAR"
		},
		{
			"bufferView":52,
			"componentType":5126,
			"count":42,
			"max":[
				0.18368595838546753,
				0.47447413206100464,
				0.44480979442596436
			],
			"min":[
				-0.14357000589370728,
				-0.4744740128517151,
				-0.3790886402130127
			],
			"type":"VEC3"
		},
		{
			"bufferView":53,
			"componentType":5126,
			"count":42,
			"type":"VEC3"
		},
		{
			"bufferView":54,
			"componentType":5126,
			"count":42,
			"type":"VEC2"
		},
		{
			"bufferView":55,
			"componentType":5123,
			"count":72,
			"type":"SCALAR"
		},
		{
			"bufferView":56,
			"componentType":5126,
			"count":36,
			"max":[
				0.1670207977294922,
				0.47447413206100464,
				0.3101818263530731
			],
			"min":[
				-0.16702088713645935,
				-0.4744740128517151,
				-0.26246151328086853
			],
			"type":"VEC3"
		},
		{
			"bufferView":57,
			"componentType":5126,
			"count":36,
			"type":"VEC3"
		},
		{
			"bufferView":58,
			"componentType":5126,
			"count":36,
			"type":"VEC2"
		},
		{
			"bufferView":59,
			"componentType":5123,
			"count":60,
			"type":"SCALAR"
		},
		{
			"bufferView":60,
			"componentType":5126,
			"count":436,
			"max":[
				0.22189949452877045,
				0.6298891305923462,
				0.19888851046562195
			],
			"min":[
				-0.24593988060951233,
				-0.47447407245635986,
				-0.2419356405735016
			],
			"type":"VEC3"
		},
		{
			"bufferView":61,
			"componentType":5126,
			"count":436,
			"type":"VEC3"
		},
		{
			"bufferView":62,
			"componentType":5126,
			"count":436,
			"type":"VEC2"
		},
		{
			"bufferView":63,
			"componentType":5123,
			"count":822,
			"type":"SCALAR"
		},
		{
			"bufferView":64,
			"componentType":5126,
			"count":82,
			"max":[
				0.19421601295471191,
				0.4744740128517151,
				0.17149469256401062
			],
			"min":[
				-0.13259218633174896,
				-0.47447413206100464,
				-0.13187725841999054
			],
			"type":"VEC3"
		},
		{
			"bufferView":65,
			"componentType":5126,
			"count":82,
			"type":"VEC3"
		},
		{
			"bufferView":66,
			"componentType":5126,
			"count":82,
			"type":"VEC2"
		},
		{
			"bufferView":67,
			"componentType":5123,
			"count":132,
			"type":"SCALAR"
		},
		{
			"bufferView":68,
			"componentType":5126,
			"count":42,
			"max":[
				0.2024436742067337,
				0.41332927346229553,
				0.19095396995544434
			],
			"min":[
				-0.2568638324737549,
				-0.5356189012527466,
				-0.13712292909622192
			],
			"type":"VEC3"
		},
		{
			"bufferView":69,
			"componentType":5126,
			"count":42,
			"type":"VEC3"
		},
		{
			"bufferView":70,
			"componentType":5126,
			"count":42,
			"type":"VEC2"
		},
		{
			"bufferView":71,
			"componentType":5123,
			"count":72,
			"type":"SCALAR"
		},
		{
			"bufferView":72,
			"componentType":5126,
			"count":54,
			"max":[
				0.33125948905944824,
				0.47447407245635986,
				0.3108476996421814
			],
			"min":[
				-0.4723767042160034,
				-0.47447407245635986,
				-0.3721359968185425
			],
			"type":"VEC3"
		},
		{
			"bufferView":73,
			"componentType":5126,
			"count":54,
			"type":"VEC3"
		},
		{
			"bufferView":74,
			"componentType":5126,
			"count":54,
			"type":"VEC2"
		},
		{
			"bufferView":75,
			"componentType":5123,
			"count":96,
			"type":"SCALAR"
		},
		{
			"bufferView":76,
			"componentType":5126,
			"count":48,
			"max":[
				0.48286139965057373,
				0.47447407245635986,
				0.2370762825012207
			],
			"min":[
				-0.33578452467918396,
				-0.47447407245635986,
				-0.3005817234516144
			],
			"type":"VEC3"
		},
		{
			"bufferView":77,
			"componentType":5126,
			"count":48,
			"type":"VEC3"
		},
		{
			"bufferView":78,
			"componentType":5126,
			"count":48,
			"type":"VEC2"
		},
		{
			"bufferView":79,
			"componentType":5123,
			"count":84,
			"type":"SCALAR"
		},
		{
			"bufferView":80,
			"componentType":5126,
			"count":28,
			"max":[
				0.17473885416984558,
				0.5271934270858765,
				0.13238859176635742
			],
			"min":[
				-0.16207751631736755,
				-0.42175471782684326,
				-0.12138605117797852
			],
			"type":"VEC3"
		},
		{
			"bufferView":81,
			"componentType":5126,
			"count":28,
			"type":"VEC3"
		},
		{
			"bufferView":82,
			"componentType":5126,
			"count":28,
			"type":"VEC2"
		},
		{
			"bufferView":83,
			"componentType":5123,
			"count":42,
			"type":"SCALAR"
		},
		{
			"bufferView":84,
			"componentType":5126,
			"count":143,
			"max":[
				0.1670207977294922,
				0.47447413206100464,
				0.28326404094696045
			],
			"min":[
				-0.16702088713645935,
				-0.4744740128517151,
				-0.24064737558364868
			],
			"type":"VEC3"
		},
		{
			"bufferView":85,
			"componentType":5126,
			"count":143,
			"type":"VEC3"
		},
		{
			"bufferView":86,
			"componentType":5126,
			"count":143,
			"type":"VEC2"
		},
		{
			"bufferView":87,
			"componentType":5123,
			"count":240,
			"type":"SCALAR"
		},
		{
			"bufferView":88,
			"componentType":5126,
			"count":112,
			"max":[
				0.2153828740119934,
				0.47447413206100464,
				0.21474125981330872
			],
			"min":[
				-0.20301908254623413,
				-0.4744740128517151,
				-0.22290362417697906
			],
			"type":"VEC3"
		},
		{
			"bufferView":89,
			"componentType":5126,
			"count":112,
			"type":"VEC3"
		},
		{
			"bufferView":90,
			"componentType":5126,
			"count":112,
			"type":"VEC2"
		},
		{
			"bufferView":91,
			"componentType":5123,
			"count":174,
			"type":"SCALAR"
		},
		{
			"bufferView":92,
			"componentType":5126,
			"count":66,
			"max":[
				0.17895089089870453,
				0.47447407245635986,
				0.1685122400522232
			],
			"min":[
				-0.20708943903446198,
				-0.47447407245635986,
				-0.23114508390426636
			],
			"type":"VEC3"
		},
		{
			"bufferView":93,
			"componentType":5126,
			"count":66,
			"type":"VEC3"
		},
		{
			"bufferView":94,
			"componentType":5126,
			"count":66,
			"type":"VEC2"
		},
		{
			"bufferView":95,
			"componentType":5123,
			"count":108,
			"type":"SCALAR"
		},
		{
			"bufferView":96,
			"componentType":5126,
			"count":102,
			"max":[
				0.22189949452877045,
				0.47447407245635986,
				0.17739719152450562
			],
			"min":[
				-0.2259027361869812,
				-0.47447407245635986,
				-0.2212154120206833
			],
			"type":"VEC3"
		},
		{
			"bufferView":97,
			"componentType":5126,
			"count":102,
			"type":"VEC3"
		},
		{
			"bufferView":98,
			"componentType":5126,
			"count":102,
			"type":"VEC2"
		},
		{
			"bufferView":99,
			"componentType":5123,
			"count":174,
			"type":"SCALAR"
		},
		{
			"bufferView":100,
			"componentType":5126,
			"count":92,
			"max":[
				0.15936268866062164,
				0.47447407245635986,
				0.1609504669904709
			],
			"min":[
				-0.1344340443611145,
				-0.47447407245635986,
				-0.14867231249809265
			],
			"type":"VEC3"
		},
		{
			"bufferView":101,
			"componentType":5126,
			"count":92,
			"type":"VEC3"
		},
		{
			"bufferView":102,
			"componentType":5126,
			"count":92,
			"type":"VEC2"
		},
		{
			"bufferView":103,
			"componentType":5123,
			"count":162,
			"type":"SCALAR"
		},
		{
			"bufferView":104,
			"componentType":5126,
			"count":92,
			"max":[
				0.15936268866062164,
				0.47447407245635986,
				0.1609504669904709
			],
			"min":[
				-0.1344340443611145,
				-0.47447407245635986,
				-0.14867231249809265
			],
			"type":"VEC3"
		},
		{
			"bufferView":105,
			"componentType":5126,
			"count":92,
			"type":"VEC3"
		},
		{
			"bufferView":106,
			"componentType":5126,
			"count":92,
			"type":"VEC2"
		},
		{
			"bufferView":107,
			"componentType":5126,
			"count":102,
			"max":[
				0.22189949452877045,
				0.47447407245635986,
				0.17739719152450562
			],
			"min":[
				-0.2259027361869812,
				-0.47447407245635986,
				-0.2212154120206833
			],
			"type":"VEC3"
		},
		{
			"bufferView":108,
			"componentType":5126,
			"count":102,
			"type":"VEC3"
		},
		{
			"bufferView":109,
			"componentType":5126,
			"count":102,
			"type":"VEC2"
		},
		{
			"bufferView":110,
			"componentType":5126,
			"count":112,
			"max":[
				0.14444364607334137,
				0.47447407245635986,
				0.22667135298252106
			],
			"min":[
				-0.1344340443611145,
				-0.47447407245635986,
				-0.14867009222507477
			],
			"type":"VEC3"
		},
		{
			"bufferView":111,
			"componentType":5126,
			"count":112,
			"type":"VEC3"
		},
		{
			"bufferView":112,
			"componentType":5126,
			"count":112,
			"type":"VEC2"
		},
		{
			"bufferView":113,
			"componentType":5126,
			"count":42,
			"max":[
				0.30110180377960205,
				0.49776607751846313,
				0.2524690330028534
			],
			"min":[
				-0.24414417147636414,
				-0.4511820673942566,
				-0.2287989854812622
			],
			"type":"VEC3"
		},
		{
			"bufferView":114,
			"componentType":5126,
			"count":42,
			"type":"VEC3"
		},
		{
			"bufferView":115,
			"componentType":5126,
			"count":42,
			"type":"VEC2"
		},
		{
			"bufferView":116,
			"componentType":5126,
			"count":436,
			"max":[
				0.9064013957977295,
				1.134015679359436,
				0.4479312300682068
			],
			"min":[
				-0.8748683929443359,
				0.02965247631072998,
				-1.0804870128631592
			],
			"type":"VEC3"
		},
		{
			"bufferView":117,
			"componentType":5126,
			"count":436,
			"type":"VEC3"
		},
		{
			"bufferView":118,
			"componentType":5126,
			"count":436,
			"type":"VEC2"
		},
		{
			"bufferView":119,
			"componentType":5123,
			"count":822,
			"type":"SCALAR"
		}
	],
	"bufferViews":[
		{
			"buffer":0,
			"byteLength":1056,
			"byteOffset":0,
			"target":34962
		},
		{
			"buffer":0,
			"byteLength":1056,
			"byteOffset":1056,
			"target":34962
		},
		{
			"buffer":0,
			"byteLength":704,
			"byteOffset":2112,
			"target":34962
		},
		{
			"buffer":0,
			"byteLength":288,
			"byteOffset":2816,
			"target":34963
		},
		{
			"buffer":0,
			"byteLength":720,
			"byteOffset":3104,
			"target":34962
		},
		{
			"buffer":0,
			"byteLength":720,
			"byteOffset":3824,
			"target":34962
		},
		{
			"buffer":0,
			"byteLength":480,
			"byteOffset":4544,
			"target":34962
		},
		{
			"buffer":0,
			"byteLength":144,
			"byteOffset":5024,
			"target":34963
		},
		{
			"buffer":0,
			"byteLength":288,
			"byteOffset":5168,
			"target":34962
		},
		{
			"buffer":0,
			"byteLength":288,
			"byteOffset":5456,
			"target":34962
		},
		{
			"buffer":0,
			"byteLength":192,
			"byteOffset":5744,
			"target":34962
		},
		{
			"buffer":0,
			"byteLength":72,
			"byteOffset":5936,
			"target":34963
		},
		{
			"buffer":0,
			"byteLength":888,
			"byteOffset":6008,
			"target":34962
		},
		{
			"buffer":0,
			"byteLength":888,
			"byteOffset":6896,
			"target":34962
		},
		{
			"buffer":0,
			"byteLength":592,
			"byteOffset":7784,
			"target":34962
		},
		{
			"buffer":0,
			"byteLength":240,
			"byteOffset":8376,
			"target":34963
		},
		{
			"buffer":0,
			"byteLength":432,
			"byteOffset":8616,
			"target":34962
		},
		{
			"buffer":0,
			"byteLength":432,
			"byteOffset":9048,
			"target":34962
		},
		{
			"buffer":0,
			"byteLength":288,
			"byteOffset":9480,
			"target":34962
		},
		{
			"buffer":0,
			"byteLength":120,
			"byteOffset":9768,
			"target":34963
		},
		{
			"buffer":0,
			"byteLength":1440,
			"byteOffset":9888,
			"target":34962
		},
		{
			"buffer":0,
			"byteLength":1440,
			"byteOffset":11328,
			"target":34962
		},
		{
			"buffer":0,
			"byteLength":960,
			"byteOffset":12768,
			"target":34962
		},
		{
			"buffer":0,
			"byteLength":420,
			"byteOffset":13728,
			"target":34963
		},
		{
			"buffer":0,
			"byteLength":504,
			"byteOffset":14148,
			"target":34962
		},
		{
			"buffer":0,
			"byteLength":504,
			"byteOffset":14652,
			"target":34962
		},
		{
			"buffer":0,
			"byteLength":336,
			"byteOffset":15156,
			"target":34962
		},
		{
			"buffer":0,
			"byteLength":144,
			"byteOffset":15492,
			"target":34963
		},
		{
			"buffer":0,
			"byteLength":288,
			"byteOffset":15636,
			"target":34962
		},
		{
			"buffer":0,
			"byteLength":288,
			"byteOffset":15924,
			"target":34962
		},
		{
			"buffer":0,
			"byteLength":192,
			"byteOffset":16212,
			"target":34962
		},
		{
			"buffer":0,
			"byteLength":72,
			"byteOffset":16404,
			"target":34963
		},
		{
			"buffer":0,
			"byteLength":288,
			"byteOffset":16476,
			"target":34962
		},
		{
			"buffer":0,
			"byteLength":288,
			"byteOffset":16764,
			"target":34962
		},
		{
			"buffer":0,
			"byteLength":192,
			"byteOffset":17052,
			"target":34962
		},
		{
			"buffer":0,
			"byteLength":72,
			"byteOffset":17244,
			"target":34963
		},
		{
			"buffer":0,
			"byteLength":432,
			"byteOffset":17316,
			"target":34962
		},
		{
			"buffer":0,
			"byteLength":432,
			"byteOffset":17748,
			"target":34962
		},
		{
			"buffer":0,
			"byteLength":288,
			"byteOffset":18180,
			"target":34962
		},
		{
			"buffer":0,
			"byteLength":120,
			"byteOffset":18468,
			"target":34963
		},
		{
			"buffer":0,
			"byteLength":288,
			"byteOffset":18588,
			"target":34962
		},
		{
			"buffer":0,
			"byteLength":288,
			"byteOffset":18876,
			"target":34962
		},
		{
			"buffer":0,
			"byteLength":192,
			"byteOffset":19164,
			"target":34962
		},
		{
			"buffer":0,
			"byteLength":72,
			"byteOffset":19356,
			"target":34963
		},
		{
			"buffer":0,
			"byteLength":432,
			"byteOffset":19428,
			"target":34962
		},
		{
			"buffer":0,
			"byteLength":432,
			"byteOffset":19860,
			"target":34962
		},
		{
			"buffer":0,
			"byteLength":288,
			"byteOffset":20292,
			"target":34962
		},
		{
			"buffer":0,
			"byteLength":120,
			"byteOffset":20580,
			"target":34963
		},
		{
			"buffer":0,
			"byteLength":1344,
			"byteOffset":20700,
			"target":34962
		},
		{
			"buffer":0,
			"byteLength":1344,
			"byteOffset":22044,
			"target":34962
		},
		{
			"buffer":0,
			"byteLength":896,
			"byteOffset":23388,
			"target":34962
		},
		{
			"buffer":0,
			"byteLength":384,
			"byteOffset":24284,
			"target":34963
		},
		{
			"buffer":0,
			"byteLength":504,
			"byteOffset":24668,
			"target":34962
		},
		{
			"buffer":0,
			"byteLength":504,
			"byteOffset":25172,
			"target":34962
		},
		{
			"buffer":0,
			"byteLength":336,
			"byteOffset":25676,
			"target":34962
		},
		{
			"buffer":0,
			"byteLength":144,
			"byteOffset":26012,
			"target":34963
		},
		{
			"buffer":0,
			"byteLength":432,
			"byteOffset":26156,
			"target":34962
		},
		{
			"buffer":0,
			"byteLength":432,
			"byteOffset":26588,
			"target":34962
		},
		{
			"buffer":0,
			"byteLength":288,
			"byteOffset":27020,
			"target":34962
		},
		{
			"buffer":0,
			"byteLength":120,
			"byteOffset":27308,
			"target":34963
		},
		{
			"buffer":0,
			"byteLength":5232,
			"byteOffset":27428,
			"target":34962
		},
		{
			"buffer":0,
			"byteLength":5232,
			"byteOffset":32660,
			"target":34962
		},
		{
			"buffer":0,
			"byteLength":3488,
			"byteOffset":37892,
			"target":34962
		},
		{
			"buffer":0,
			"byteLength":1644,
			"byteOffset":41380,
			"target":34963
		},
		{
			"buffer":0,
			"byteLength":984,
			"byteOffset":43024,
			"target":34962
		},
		{
			"buffer":0,
			"byteLength":984,
			"byteOffset":44008,
			"target":34962
		},
		{
			"buffer":0,
			"byteLength":656,
			"byteOffset":44992,
			"target":34962
		},
		{
			"buffer":0,
			"byteLength":264,
			"byteOffset":45648,
			"target":34963
		},
		{
			"buffer":0,
			"byteLength":504,
			"byteOffset":45912,
			"target":34962
		},
		{
			"buffer":0,
			"byteLength":504,
			"byteOffset":46416,
			"target":34962
		},
		{
			"buffer":0,
			"byteLength":336,
			"byteOffset":46920,
			"target":34962
		},
		{
			"buffer":0,
			"byteLength":144,
			"byteOffset":47256,
			"target":34963
		},
		{
			"buffer":0,
			"byteLength":648,
			"byteOffset":47400,
			"target":34962
		},
		{
			"buffer":0,
			"byteLength":648,
			"byteOffset":48048,
			"target":34962
		},
		{
			"buffer":0,
			"byteLength":432,
			"byteOffset":48696,
			"target":34962
		},
		{
			"buffer":0,
			"byteLength":192,
			"byteOffset":49128,
			"target":34963
		},
		{
			"buffer":0,
			"byteLength":576,
			"byteOffset":49320,
			"target":34962
		},
		{
			"buffer":0,
			"byteLength":576,
			"byteOffset":49896,
			"target":34962
		},
		{
			"buffer":0,
			"byteLength":384,
			"byteOffset":50472,
			"target":34962
		},
		{
			"buffer":0,
			"byteLength":168,
			"byteOffset":50856,
			"target":34963
		},
		{
			"buffer":0,
			"byteLength":336,
			"byteOffset":51024,
			"target":34962
		},
		{
			"buffer":0,
			"byteLength":336,
			"byteOffset":51360,
			"target":34962
		},
		{
			"buffer":0,
			"byteLength":224,
			"byteOffset":51696,
			"target":34962
		},
		{
			"buffer":0,
			"byteLength":84,
			"byteOffset":51920,
			"target":34963
		},
		{
			"buffer":0,
			"byteLength":1716,
			"byteOffset":52004,
			"target":34962
		},
		{
			"buffer":0,
			"byteLength":1716,
			"byteOffset":53720,
			"target":34962
		},
		{
			"buffer":0,
			"byteLength":1144,
			"byteOffset":55436,
			"target":34962
		},
		{
			"buffer":0,
			"byteLength":480,
			"byteOffset":56580,
			"target":34963
		},
		{
			"buffer":0,
			"byteLength":1344,
			"byteOffset":57060,
			"target":34962
		},
		{
			"buffer":0,
			"byteLength":1344,
			"byteOffset":58404,
			"target":34962
		},
		{
			"buffer":0,
			"byteLength":896,
			"byteOffset":59748,
			"target":34962
		},
		{
			"buffer":0,
			"byteLength":348,
			"byteOffset":60644,
			"target":34963
		},
		{
			"buffer":0,
			"byteLength":792,
			"byteOffset":60992,
			"target":34962
		},
		{
			"buffer":0,
			"byteLength":792,
			"byteOffset":61784,
			"target":34962
		},
		{
			"buffer":0,
			"byteLength":528,
			"byteOffset":62576,
			"target":34962
		},
		{
			"buffer":0,
			"byteLength":216,
			"byteOffset":63104,
			"target":34963
		},
		{
			"buffer":0,
			"byteLength":1224,
			"byteOffset":63320,
			"target":34962
		},
		{
			"buffer":0,
			"byteLength":1224,
			"byteOffset":64544,
			"target":34962
		},
		{
			"buffer":0,
			"byteLength":816,
			"byteOffset":65768,
			"target":34962
		},
		{
			"buffer":0,
			"byteLength":348,
			"byteOffset":66584,
			"target":34963
		},
		{
			"buffer":0,
			"byteLength":1104,
			"byteOffset":66932,
			"target":34962
		},
		{
			"buffer":0,
			"byteLength":1104,
			"byteOffset":68036,
			"target":34962
		},
		{
			"buffer":0,
			"byteLength":736,
			"byteOffset":69140,
			"target":34962
		},
		{
			"buffer":0,
			"byteLength":324,
			"byteOffset":69876,
			"target":34963
		},
		{
			"buffer":0,
			"byteLength":1104,
			"byteOffset":70200,
			"target":34962
		},
		{
			"buffer":0,
			"byteLength":1104,
			"byteOffset":71304,
			"target":34962
		},
		{
			"buffer":0,
			"byteLength":736,
			"byteOffset":72408,
			"target":34962
		},
		{
			"buffer":0,
			"byteLength":1224,
			"byteOffset":73144,
			"target":34962
		},
		{
			"buffer":0,
			"byteLength":1224,
			"byteOffset":74368,
			"target":34962
		},
		{
			"buffer":0,
			"byteLength":816,
			"byteOffset":75592,
			"target":34962
		},
		{
			"buffer":0,
			"byteLength":1344,
			"byteOffset":76408,
			"target":34962
		},
		{
			"buffer":0,
			"byteLength":1344,
			"byteOffset":77752,
			"target":34962
		},
		{
			"buffer":0,
			"byteLength":896,
			"byteOffset":79096,
			"target":34962
		},
		{
			"buffer":0,
			"byteLength":504,
			"byteOffset":79992,
			"target":34962
		},
		{
			"buffer":0,
			"byteLength":504,
			"byteOffset":80496,
			"target":34962
		},
		{
			"buffer":0,
			"byteLength":336,
			"byteOffset":81000,
			"target":34962
		},
		{
			"buffer":0,
			"byteLength":5232,
			"byteOffset":81336,
			"target":34962
		},
		{
			"buffer":0,
			"byteLength":5232,
			"byteOffset":86568,
			"target":34962
		},
		{
			"buffer":0,
			"byteLength":3488,
			"byteOffset":91800,
			"target":34962
		},
		{
			"buffer":0,
			"byteLength":1644,
			"byteOffset":95288,
			"target":34963
		}
	],
	"buffers":[
		{
			"byteLength":96932,
			"uri":"boss_head.bin"
		}
	]
}
