{
	"asset":{
		"generator":"Khronos glTF Blender I/O v4.4.56",
		"version":"2.0"
	},
	"scene":0,
	"scenes":[
		{
			"name":"Scene",
			"nodes":[
				10
			]
		}
	],
	"nodes":[
		{
			"name":"\u30dc\u30fc\u30f3.003",
			"rotation":[
				0.007730918936431408,
				0,
				0,
				0.9999701380729675
			],
			"scale":[
				1,
				0.9999999403953552,
				1
			],
			"translation":[
				0,
				0.9149929285049438,
				0
			]
		},
		{
			"children":[
				0
			],
			"name":"\u30dc\u30fc\u30f3.002",
			"rotation":[
				-0.03247903287410736,
				0,
				0,
				0.999472439289093
			],
			"translation":[
				0,
				1.0410497188568115,
				0
			]
		},
		{
			"name":"\u30dc\u30fc\u30f3.005",
			"rotation":[
				-8.50015968723028e-09,
				2.4645981255844163e-08,
				-0.10407762974500656,
				0.9945692420005798
			],
			"scale":[
				1,
				0.9999999403953552,
				1
			],
			"translation":[
				-7.450580596923828e-08,
				0.8987235426902771,
				-3.552713678800501e-15
			]
		},
		{
			"children":[
				2
			],
			"name":"\u30dc\u30fc\u30f3.004",
			"rotation":[
				-1.4832099104467034e-08,
				4.867216407689057e-09,
				0.664514422416687,
				0.7472754716873169
			],
			"scale":[
				1,
				0.9999999403953552,
				1
			],
			"translation":[
				0,
				1.0410497188568115,
				0
			]
		},
		{
			"name":"\u30dc\u30fc\u30f3.008",
			"rotation":[
				-6.110038697215714e-08,
				-5.4654805126119754e-08,
				0.6689501404762268,
				0.7433072924613953
			],
			"scale":[
				1,
				0.9999999403953552,
				1
			],
			"translation":[
				5.960464477539063e-08,
				1.041926622390747,
				-2.6645352591003757e-15
			]
		},
		{
			"children":[
				4
			],
			"name":"\u30dc\u30fc\u30f3.007",
			"rotation":[
				-1.6126001867178275e-08,
				1.8845074833961917e-08,
				0.11052345484495163,
				0.9938735365867615
			],
			"translation":[
				1.1920928955078125e-07,
				0.9378432035446167,
				-8.881784197001252e-16
			]
		},
		{
			"children":[
				5
			],
			"name":"\u30dc\u30fc\u30f3.006",
			"rotation":[
				-7.797445356061417e-09,
				2.5629398603399522e-09,
				-0.6663455367088318,
				0.745643138885498
			],
			"translation":[
				0,
				1.0410497188568115,
				0
			]
		},
		{
			"children":[
				1,
				3,
				6
			],
			"name":"\u30dc\u30fc\u30f3.001",
			"translation":[
				0,
				1,
				0
			]
		},
		{
			"children":[
				7
			],
			"name":"\u30dc\u30fc\u30f3"
		},
		{
			"mesh":0,
			"name":"\u5186\u67f1",
			"skin":0
		},
		{
			"children":[
				9,
				8
			],
			"name":"\u30a2\u30fc\u30de\u30c1\u30e5\u30a2"
		}
	],
	"animations":[
		{
			"channels":[
				{
					"sampler":0,
					"target":{
						"node":8,
						"path":"translation"
					}
				},
				{
					"sampler":1,
					"target":{
						"node":8,
						"path":"rotation"
					}
				},
				{
					"sampler":2,
					"target":{
						"node":8,
						"path":"scale"
					}
				},
				{
					"sampler":3,
					"target":{
						"node":7,
						"path":"translation"
					}
				},
				{
					"sampler":4,
					"target":{
						"node":7,
						"path":"rotation"
					}
				},
				{
					"sampler":5,
					"target":{
						"node":7,
						"path":"scale"
					}
				},
				{
					"sampler":6,
					"target":{
						"node":1,
						"path":"translation"
					}
				},
				{
					"sampler":7,
					"target":{
						"node":1,
						"path":"rotation"
					}
				},
				{
					"sampler":8,
					"target":{
						"node":1,
						"path":"scale"
					}
				},
				{
					"sampler":9,
					"target":{
						"node":0,
						"path":"translation"
					}
				},
				{
					"sampler":10,
					"target":{
						"node":0,
						"path":"rotation"
					}
				},
				{
					"sampler":11,
					"target":{
						"node":0,
						"path":"scale"
					}
				},
				{
					"sampler":12,
					"target":{
						"node":3,
						"path":"translation"
					}
				},
				{
					"sampler":13,
					"target":{
						"node":3,
						"path":"rotation"
					}
				},
				{
					"sampler":14,
					"target":{
						"node":3,
						"path":"scale"
					}
				},
				{
					"sampler":15,
					"target":{
						"node":2,
						"path":"translation"
					}
				},
				{
					"sampler":16,
					"target":{
						"node":2,
						"path":"rotation"
					}
				},
				{
					"sampler":17,
					"target":{
						"node":2,
						"path":"scale"
					}
				},
				{
					"sampler":18,
					"target":{
						"node":6,
						"path":"translation"
					}
				},
				{
					"sampler":19,
					"target":{
						"node":6,
						"path":"rotation"
					}
				},
				{
					"sampler":20,
					"target":{
						"node":6,
						"path":"scale"
					}
				},
				{
					"sampler":21,
					"target":{
						"node":5,
						"path":"translation"
					}
				},
				{
					"sampler":22,
					"target":{
						"node":5,
						"path":"rotation"
					}
				},
				{
					"sampler":23,
					"target":{
						"node":5,
						"path":"scale"
					}
				},
				{
					"sampler":24,
					"target":{
						"node":4,
						"path":"translation"
					}
				},
				{
					"sampler":25,
					"target":{
						"node":4,
						"path":"rotation"
					}
				},
				{
					"sampler":26,
					"target":{
						"node":4,
						"path":"scale"
					}
				}
			],
			"name":"appear",
			"samplers":[
				{
					"input":7,
					"interpolation":"STEP",
					"output":8
				},
				{
					"input":7,
					"interpolation":"STEP",
					"output":9
				},
				{
					"input":7,
					"interpolation":"STEP",
					"output":10
				},
				{
					"input":7,
					"interpolation":"STEP",
					"output":11
				},
				{
					"input":7,
					"interpolation":"STEP",
					"output":12
				},
				{
					"input":7,
					"interpolation":"STEP",
					"output":13
				},
				{
					"input":7,
					"interpolation":"STEP",
					"output":14
				},
				{
					"input":7,
					"interpolation":"STEP",
					"output":15
				},
				{
					"input":7,
					"interpolation":"STEP",
					"output":16
				},
				{
					"input":7,
					"interpolation":"STEP",
					"output":17
				},
				{
					"input":18,
					"interpolation":"LINEAR",
					"output":19
				},
				{
					"input":7,
					"interpolation":"STEP",
					"output":20
				},
				{
					"input":7,
					"interpolation":"STEP",
					"output":21
				},
				{
					"input":7,
					"interpolation":"STEP",
					"output":22
				},
				{
					"input":7,
					"interpolation":"STEP",
					"output":23
				},
				{
					"input":7,
					"interpolation":"STEP",
					"output":24
				},
				{
					"input":18,
					"interpolation":"LINEAR",
					"output":25
				},
				{
					"input":7,
					"interpolation":"STEP",
					"output":26
				},
				{
					"input":7,
					"interpolation":"STEP",
					"output":27
				},
				{
					"input":7,
					"interpolation":"STEP",
					"output":28
				},
				{
					"input":7,
					"interpolation":"STEP",
					"output":29
				},
				{
					"input":7,
					"interpolation":"STEP",
					"output":30
				},
				{
					"input":18,
					"interpolation":"LINEAR",
					"output":31
				},
				{
					"input":7,
					"interpolation":"STEP",
					"output":32
				},
				{
					"input":7,
					"interpolation":"STEP",
					"output":33
				},
				{
					"input":7,
					"interpolation":"STEP",
					"output":34
				},
				{
					"input":7,
					"interpolation":"STEP",
					"output":35
				}
			]
		},
		{
			"channels":[
				{
					"sampler":0,
					"target":{
						"node":8,
						"path":"translation"
					}
				},
				{
					"sampler":1,
					"target":{
						"node":8,
						"path":"rotation"
					}
				},
				{
					"sampler":2,
					"target":{
						"node":8,
						"path":"scale"
					}
				},
				{
					"sampler":3,
					"target":{
						"node":7,
						"path":"translation"
					}
				},
				{
					"sampler":4,
					"target":{
						"node":7,
						"path":"rotation"
					}
				},
				{
					"sampler":5,
					"target":{
						"node":7,
						"path":"scale"
					}
				},
				{
					"sampler":6,
					"target":{
						"node":1,
						"path":"translation"
					}
				},
				{
					"sampler":7,
					"target":{
						"node":1,
						"path":"rotation"
					}
				},
				{
					"sampler":8,
					"target":{
						"node":1,
						"path":"scale"
					}
				},
				{
					"sampler":9,
					"target":{
						"node":0,
						"path":"translation"
					}
				},
				{
					"sampler":10,
					"target":{
						"node":0,
						"path":"rotation"
					}
				},
				{
					"sampler":11,
					"target":{
						"node":0,
						"path":"scale"
					}
				},
				{
					"sampler":12,
					"target":{
						"node":3,
						"path":"translation"
					}
				},
				{
					"sampler":13,
					"target":{
						"node":3,
						"path":"rotation"
					}
				},
				{
					"sampler":14,
					"target":{
						"node":3,
						"path":"scale"
					}
				},
				{
					"sampler":15,
					"target":{
						"node":2,
						"path":"translation"
					}
				},
				{
					"sampler":16,
					"target":{
						"node":2,
						"path":"rotation"
					}
				},
				{
					"sampler":17,
					"target":{
						"node":2,
						"path":"scale"
					}
				},
				{
					"sampler":18,
					"target":{
						"node":6,
						"path":"translation"
					}
				},
				{
					"sampler":19,
					"target":{
						"node":6,
						"path":"rotation"
					}
				},
				{
					"sampler":20,
					"target":{
						"node":6,
						"path":"scale"
					}
				},
				{
					"sampler":21,
					"target":{
						"node":5,
						"path":"translation"
					}
				},
				{
					"sampler":22,
					"target":{
						"node":5,
						"path":"rotation"
					}
				},
				{
					"sampler":23,
					"target":{
						"node":5,
						"path":"scale"
					}
				},
				{
					"sampler":24,
					"target":{
						"node":4,
						"path":"translation"
					}
				},
				{
					"sampler":25,
					"target":{
						"node":4,
						"path":"rotation"
					}
				},
				{
					"sampler":26,
					"target":{
						"node":4,
						"path":"scale"
					}
				}
			],
			"name":"attack",
			"samplers":[
				{
					"input":36,
					"interpolation":"LINEAR",
					"output":37
				},
				{
					"input":36,
					"interpolation":"LINEAR",
					"output":38
				},
				{
					"input":39,
					"interpolation":"STEP",
					"output":40
				},
				{
					"input":39,
					"interpolation":"LINEAR",
					"output":41
				},
				{
					"input":36,
					"interpolation":"LINEAR",
					"output":42
				},
				{
					"input":39,
					"interpolation":"STEP",
					"output":43
				},
				{
					"input":39,
					"interpolation":"LINEAR",
					"output":44
				},
				{
					"input":36,
					"interpolation":"LINEAR",
					"output":45
				},
				{
					"input":39,
					"interpolation":"STEP",
					"output":46
				},
				{
					"input":39,
					"interpolation":"LINEAR",
					"output":47
				},
				{
					"input":36,
					"interpolation":"LINEAR",
					"output":48
				},
				{
					"input":39,
					"interpolation":"LINEAR",
					"output":49
				},
				{
					"input":39,
					"interpolation":"LINEAR",
					"output":50
				},
				{
					"input":39,
					"interpolation":"LINEAR",
					"output":51
				},
				{
					"input":39,
					"interpolation":"STEP",
					"output":52
				},
				{
					"input":39,
					"interpolation":"LINEAR",
					"output":53
				},
				{
					"input":36,
					"interpolation":"LINEAR",
					"output":54
				},
				{
					"input":39,
					"interpolation":"STEP",
					"output":55
				},
				{
					"input":39,
					"interpolation":"LINEAR",
					"output":56
				},
				{
					"input":39,
					"interpolation":"LINEAR",
					"output":57
				},
				{
					"input":39,
					"interpolation":"STEP",
					"output":58
				},
				{
					"input":39,
					"interpolation":"LINEAR",
					"output":59
				},
				{
					"input":36,
					"interpolation":"LINEAR",
					"output":60
				},
				{
					"input":39,
					"interpolation":"LINEAR",
					"output":61
				},
				{
					"input":39,
					"interpolation":"LINEAR",
					"output":62
				},
				{
					"input":36,
					"interpolation":"LINEAR",
					"output":63
				},
				{
					"input":39,
					"interpolation":"LINEAR",
					"output":64
				}
			]
		},
		{
			"channels":[
				{
					"sampler":0,
					"target":{
						"node":8,
						"path":"translation"
					}
				},
				{
					"sampler":1,
					"target":{
						"node":8,
						"path":"rotation"
					}
				},
				{
					"sampler":2,
					"target":{
						"node":8,
						"path":"scale"
					}
				},
				{
					"sampler":3,
					"target":{
						"node":7,
						"path":"translation"
					}
				},
				{
					"sampler":4,
					"target":{
						"node":7,
						"path":"rotation"
					}
				},
				{
					"sampler":5,
					"target":{
						"node":7,
						"path":"scale"
					}
				},
				{
					"sampler":6,
					"target":{
						"node":1,
						"path":"translation"
					}
				},
				{
					"sampler":7,
					"target":{
						"node":1,
						"path":"rotation"
					}
				},
				{
					"sampler":8,
					"target":{
						"node":1,
						"path":"scale"
					}
				},
				{
					"sampler":9,
					"target":{
						"node":0,
						"path":"translation"
					}
				},
				{
					"sampler":10,
					"target":{
						"node":0,
						"path":"rotation"
					}
				},
				{
					"sampler":11,
					"target":{
						"node":0,
						"path":"scale"
					}
				},
				{
					"sampler":12,
					"target":{
						"node":3,
						"path":"translation"
					}
				},
				{
					"sampler":13,
					"target":{
						"node":3,
						"path":"rotation"
					}
				},
				{
					"sampler":14,
					"target":{
						"node":3,
						"path":"scale"
					}
				},
				{
					"sampler":15,
					"target":{
						"node":2,
						"path":"translation"
					}
				},
				{
					"sampler":16,
					"target":{
						"node":2,
						"path":"rotation"
					}
				},
				{
					"sampler":17,
					"target":{
						"node":2,
						"path":"scale"
					}
				},
				{
					"sampler":18,
					"target":{
						"node":6,
						"path":"translation"
					}
				},
				{
					"sampler":19,
					"target":{
						"node":6,
						"path":"rotation"
					}
				},
				{
					"sampler":20,
					"target":{
						"node":6,
						"path":"scale"
					}
				},
				{
					"sampler":21,
					"target":{
						"node":5,
						"path":"translation"
					}
				},
				{
					"sampler":22,
					"target":{
						"node":5,
						"path":"rotation"
					}
				},
				{
					"sampler":23,
					"target":{
						"node":5,
						"path":"scale"
					}
				},
				{
					"sampler":24,
					"target":{
						"node":4,
						"path":"translation"
					}
				},
				{
					"sampler":25,
					"target":{
						"node":4,
						"path":"rotation"
					}
				},
				{
					"sampler":26,
					"target":{
						"node":4,
						"path":"scale"
					}
				}
			],
			"name":"leaving",
			"samplers":[
				{
					"input":7,
					"interpolation":"STEP",
					"output":65
				},
				{
					"input":18,
					"interpolation":"LINEAR",
					"output":66
				},
				{
					"input":7,
					"interpolation":"STEP",
					"output":67
				},
				{
					"input":7,
					"interpolation":"STEP",
					"output":68
				},
				{
					"input":7,
					"interpolation":"STEP",
					"output":69
				},
				{
					"input":7,
					"interpolation":"STEP",
					"output":70
				},
				{
					"input":7,
					"interpolation":"STEP",
					"output":71
				},
				{
					"input":7,
					"interpolation":"STEP",
					"output":72
				},
				{
					"input":7,
					"interpolation":"STEP",
					"output":73
				},
				{
					"input":7,
					"interpolation":"STEP",
					"output":74
				},
				{
					"input":7,
					"interpolation":"STEP",
					"output":75
				},
				{
					"input":7,
					"interpolation":"STEP",
					"output":76
				},
				{
					"input":7,
					"interpolation":"STEP",
					"output":77
				},
				{
					"input":7,
					"interpolation":"STEP",
					"output":78
				},
				{
					"input":7,
					"interpolation":"STEP",
					"output":79
				},
				{
					"input":7,
					"interpolation":"STEP",
					"output":80
				},
				{
					"input":7,
					"interpolation":"STEP",
					"output":81
				},
				{
					"input":7,
					"interpolation":"STEP",
					"output":82
				},
				{
					"input":7,
					"interpolation":"STEP",
					"output":83
				},
				{
					"input":7,
					"interpolation":"STEP",
					"output":84
				},
				{
					"input":7,
					"interpolation":"STEP",
					"output":85
				},
				{
					"input":7,
					"interpolation":"STEP",
					"output":86
				},
				{
					"input":7,
					"interpolation":"STEP",
					"output":87
				},
				{
					"input":7,
					"interpolation":"STEP",
					"output":88
				},
				{
					"input":7,
					"interpolation":"STEP",
					"output":89
				},
				{
					"input":7,
					"interpolation":"STEP",
					"output":90
				},
				{
					"input":7,
					"interpolation":"STEP",
					"output":91
				}
			]
		},
		{
			"channels":[
				{
					"sampler":0,
					"target":{
						"node":8,
						"path":"translation"
					}
				},
				{
					"sampler":1,
					"target":{
						"node":8,
						"path":"rotation"
					}
				},
				{
					"sampler":2,
					"target":{
						"node":8,
						"path":"scale"
					}
				},
				{
					"sampler":3,
					"target":{
						"node":7,
						"path":"translation"
					}
				},
				{
					"sampler":4,
					"target":{
						"node":7,
						"path":"rotation"
					}
				},
				{
					"sampler":5,
					"target":{
						"node":7,
						"path":"scale"
					}
				},
				{
					"sampler":6,
					"target":{
						"node":1,
						"path":"translation"
					}
				},
				{
					"sampler":7,
					"target":{
						"node":1,
						"path":"rotation"
					}
				},
				{
					"sampler":8,
					"target":{
						"node":1,
						"path":"scale"
					}
				},
				{
					"sampler":9,
					"target":{
						"node":0,
						"path":"translation"
					}
				},
				{
					"sampler":10,
					"target":{
						"node":0,
						"path":"rotation"
					}
				},
				{
					"sampler":11,
					"target":{
						"node":0,
						"path":"scale"
					}
				},
				{
					"sampler":12,
					"target":{
						"node":3,
						"path":"translation"
					}
				},
				{
					"sampler":13,
					"target":{
						"node":3,
						"path":"rotation"
					}
				},
				{
					"sampler":14,
					"target":{
						"node":3,
						"path":"scale"
					}
				},
				{
					"sampler":15,
					"target":{
						"node":2,
						"path":"translation"
					}
				},
				{
					"sampler":16,
					"target":{
						"node":2,
						"path":"rotation"
					}
				},
				{
					"sampler":17,
					"target":{
						"node":2,
						"path":"scale"
					}
				},
				{
					"sampler":18,
					"target":{
						"node":6,
						"path":"translation"
					}
				},
				{
					"sampler":19,
					"target":{
						"node":6,
						"path":"rotation"
					}
				},
				{
					"sampler":20,
					"target":{
						"node":6,
						"path":"scale"
					}
				},
				{
					"sampler":21,
					"target":{
						"node":5,
						"path":"translation"
					}
				},
				{
					"sampler":22,
					"target":{
						"node":5,
						"path":"rotation"
					}
				},
				{
					"sampler":23,
					"target":{
						"node":5,
						"path":"scale"
					}
				},
				{
					"sampler":24,
					"target":{
						"node":4,
						"path":"translation"
					}
				},
				{
					"sampler":25,
					"target":{
						"node":4,
						"path":"rotation"
					}
				},
				{
					"sampler":26,
					"target":{
						"node":4,
						"path":"scale"
					}
				}
			],
			"name":"leaving.001",
			"samplers":[
				{
					"input":7,
					"interpolation":"STEP",
					"output":92
				},
				{
					"input":18,
					"interpolation":"LINEAR",
					"output":93
				},
				{
					"input":7,
					"interpolation":"STEP",
					"output":94
				},
				{
					"input":7,
					"interpolation":"STEP",
					"output":95
				},
				{
					"input":7,
					"interpolation":"STEP",
					"output":96
				},
				{
					"input":7,
					"interpolation":"STEP",
					"output":97
				},
				{
					"input":7,
					"interpolation":"STEP",
					"output":98
				},
				{
					"input":7,
					"interpolation":"STEP",
					"output":99
				},
				{
					"input":7,
					"interpolation":"STEP",
					"output":100
				},
				{
					"input":7,
					"interpolation":"STEP",
					"output":101
				},
				{
					"input":18,
					"interpolation":"LINEAR",
					"output":102
				},
				{
					"input":7,
					"interpolation":"STEP",
					"output":103
				},
				{
					"input":7,
					"interpolation":"STEP",
					"output":104
				},
				{
					"input":7,
					"interpolation":"STEP",
					"output":105
				},
				{
					"input":7,
					"interpolation":"STEP",
					"output":106
				},
				{
					"input":7,
					"interpolation":"STEP",
					"output":107
				},
				{
					"input":18,
					"interpolation":"LINEAR",
					"output":108
				},
				{
					"input":7,
					"interpolation":"STEP",
					"output":109
				},
				{
					"input":7,
					"interpolation":"STEP",
					"output":110
				},
				{
					"input":7,
					"interpolation":"STEP",
					"output":111
				},
				{
					"input":7,
					"interpolation":"STEP",
					"output":112
				},
				{
					"input":7,
					"interpolation":"STEP",
					"output":113
				},
				{
					"input":18,
					"interpolation":"LINEAR",
					"output":114
				},
				{
					"input":7,
					"interpolation":"STEP",
					"output":115
				},
				{
					"input":7,
					"interpolation":"STEP",
					"output":116
				},
				{
					"input":18,
					"interpolation":"LINEAR",
					"output":117
				},
				{
					"input":7,
					"interpolation":"STEP",
					"output":118
				}
			]
		},
		{
			"channels":[
				{
					"sampler":0,
					"target":{
						"node":8,
						"path":"translation"
					}
				},
				{
					"sampler":1,
					"target":{
						"node":8,
						"path":"rotation"
					}
				},
				{
					"sampler":2,
					"target":{
						"node":8,
						"path":"scale"
					}
				},
				{
					"sampler":3,
					"target":{
						"node":7,
						"path":"translation"
					}
				},
				{
					"sampler":4,
					"target":{
						"node":7,
						"path":"rotation"
					}
				},
				{
					"sampler":5,
					"target":{
						"node":7,
						"path":"scale"
					}
				},
				{
					"sampler":6,
					"target":{
						"node":1,
						"path":"translation"
					}
				},
				{
					"sampler":7,
					"target":{
						"node":1,
						"path":"rotation"
					}
				},
				{
					"sampler":8,
					"target":{
						"node":1,
						"path":"scale"
					}
				},
				{
					"sampler":9,
					"target":{
						"node":0,
						"path":"translation"
					}
				},
				{
					"sampler":10,
					"target":{
						"node":0,
						"path":"rotation"
					}
				},
				{
					"sampler":11,
					"target":{
						"node":0,
						"path":"scale"
					}
				},
				{
					"sampler":12,
					"target":{
						"node":3,
						"path":"translation"
					}
				},
				{
					"sampler":13,
					"target":{
						"node":3,
						"path":"rotation"
					}
				},
				{
					"sampler":14,
					"target":{
						"node":3,
						"path":"scale"
					}
				},
				{
					"sampler":15,
					"target":{
						"node":2,
						"path":"translation"
					}
				},
				{
					"sampler":16,
					"target":{
						"node":2,
						"path":"rotation"
					}
				},
				{
					"sampler":17,
					"target":{
						"node":2,
						"path":"scale"
					}
				},
				{
					"sampler":18,
					"target":{
						"node":6,
						"path":"translation"
					}
				},
				{
					"sampler":19,
					"target":{
						"node":6,
						"path":"rotation"
					}
				},
				{
					"sampler":20,
					"target":{
						"node":6,
						"path":"scale"
					}
				},
				{
					"sampler":21,
					"target":{
						"node":5,
						"path":"translation"
					}
				},
				{
					"sampler":22,
					"target":{
						"node":5,
						"path":"rotation"
					}
				},
				{
					"sampler":23,
					"target":{
						"node":5,
						"path":"scale"
					}
				},
				{
					"sampler":24,
					"target":{
						"node":4,
						"path":"translation"
					}
				},
				{
					"sampler":25,
					"target":{
						"node":4,
						"path":"rotation"
					}
				},
				{
					"sampler":26,
					"target":{
						"node":4,
						"path":"scale"
					}
				}
			],
			"name":"move",
			"samplers":[
				{
					"input":7,
					"interpolation":"STEP",
					"output":119
				},
				{
					"input":18,
					"interpolation":"LINEAR",
					"output":120
				},
				{
					"input":7,
					"interpolation":"STEP",
					"output":121
				},
				{
					"input":7,
					"interpolation":"STEP",
					"output":122
				},
				{
					"input":7,
					"interpolation":"STEP",
					"output":123
				},
				{
					"input":7,
					"interpolation":"STEP",
					"output":124
				},
				{
					"input":7,
					"interpolation":"STEP",
					"output":125
				},
				{
					"input":7,
					"interpolation":"STEP",
					"output":126
				},
				{
					"input":7,
					"interpolation":"STEP",
					"output":127
				},
				{
					"input":7,
					"interpolation":"STEP",
					"output":128
				},
				{
					"input":18,
					"interpolation":"LINEAR",
					"output":129
				},
				{
					"input":7,
					"interpolation":"STEP",
					"output":130
				},
				{
					"input":7,
					"interpolation":"STEP",
					"output":131
				},
				{
					"input":7,
					"interpolation":"STEP",
					"output":132
				},
				{
					"input":7,
					"interpolation":"STEP",
					"output":133
				},
				{
					"input":7,
					"interpolation":"STEP",
					"output":134
				},
				{
					"input":18,
					"interpolation":"LINEAR",
					"output":135
				},
				{
					"input":7,
					"interpolation":"STEP",
					"output":136
				},
				{
					"input":7,
					"interpolation":"STEP",
					"output":137
				},
				{
					"input":7,
					"interpolation":"STEP",
					"output":138
				},
				{
					"input":7,
					"interpolation":"STEP",
					"output":139
				},
				{
					"input":7,
					"interpolation":"STEP",
					"output":140
				},
				{
					"input":18,
					"interpolation":"LINEAR",
					"output":141
				},
				{
					"input":7,
					"interpolation":"STEP",
					"output":142
				},
				{
					"input":7,
					"interpolation":"STEP",
					"output":143
				},
				{
					"input":18,
					"interpolation":"LINEAR",
					"output":144
				},
				{
					"input":7,
					"interpolation":"STEP",
					"output":145
				}
			]
		}
	],
	"materials":[
		{
			"doubleSided":true,
			"name":"\u30de\u30c6\u30ea\u30a2\u30eb",
			"pbrMetallicRoughness":{
				"baseColorTexture":{
					"index":0
				},
				"metallicFactor":0,
				"roughnessFactor":0.5
			}
		}
	],
	"meshes":[
		{
			"name":"\u5186\u67f1",
			"primitives":[
				{
					"attributes":{
						"POSITION":0,
						"NORMAL":1,
						"TEXCOORD_0":2,
						"JOINTS_0":3,
						"WEIGHTS_0":4
					},
					"indices":5,
					"material":0
				}
			]
		}
	],
	"textures":[
		{
			"sampler":0,
			"source":0
		}
	],
	"images":[
		{
			"mimeType":"image/png",
			"name":"soldier",
			"uri":"soldier.png"
		}
	],
	"skins":[
		{
			"inverseBindMatrices":6,
			"joints":[
				8,
				7,
				1,
				0,
				3,
				2,
				6,
				5,
				4
			],
			"name":"\u30a2\u30fc\u30de\u30c1\u30e5\u30a2"
		}
	],
	"accessors":[
		{
			"bufferView":0,
			"componentType":5126,
			"count":1243,
			"max":[
				2.2261388301849365,
				4.29509973526001,
				1.1427035331726074
			],
			"min":[
				-2.091273784637451,
				0.013659387826919556,
				-1.1427035331726074
			],
			"type":"VEC3"
		},
		{
			"bufferView":1,
			"componentType":5126,
			"count":1243,
			"type":"VEC3"
		},
		{
			"bufferView":2,
			"componentType":5126,
			"count":1243,
			"type":"VEC2"
		},
		{
			"bufferView":3,
			"componentType":5121,
			"count":1243,
			"type":"VEC4"
		},
		{
			"bufferView":4,
			"componentType":5126,
			"count":1243,
			"type":"VEC4"
		},
		{
			"bufferView":5,
			"componentType":5123,
			"count":5898,
			"type":"SCALAR"
		},
		{
			"bufferView":6,
			"componentType":5126,
			"count":9,
			"type":"MAT4"
		},
		{
			"bufferView":7,
			"componentType":5126,
			"count":2,
			"max":[
				0.3333333333333333
			],
			"min":[
				0
			],
			"type":"SCALAR"
		},
		{
			"bufferView":8,
			"componentType":5126,
			"count":2,
			"type":"VEC3"
		},
		{
			"bufferView":9,
			"componentType":5126,
			"count":2,
			"type":"VEC4"
		},
		{
			"bufferView":10,
			"componentType":5126,
			"count":2,
			"type":"VEC3"
		},
		{
			"bufferView":11,
			"componentType":5126,
			"count":2,
			"type":"VEC3"
		},
		{
			"bufferView":12,
			"componentType":5126,
			"count":2,
			"type":"VEC4"
		},
		{
			"bufferView":13,
			"componentType":5126,
			"count":2,
			"type":"VEC3"
		},
		{
			"bufferView":14,
			"componentType":5126,
			"count":2,
			"type":"VEC3"
		},
		{
			"bufferView":15,
			"componentType":5126,
			"count":2,
			"type":"VEC4"
		},
		{
			"bufferView":16,
			"componentType":5126,
			"count":2,
			"type":"VEC3"
		},
		{
			"bufferView":17,
			"componentType":5126,
			"count":2,
			"type":"VEC3"
		},
		{
			"bufferView":18,
			"componentType":5126,
			"count":21,
			"max":[
				0.3333333333333333
			],
			"min":[
				0
			],
			"type":"SCALAR"
		},
		{
			"bufferView":19,
			"componentType":5126,
			"count":21,
			"type":"VEC4"
		},
		{
			"bufferView":20,
			"componentType":5126,
			"count":2,
			"type":"VEC3"
		},
		{
			"bufferView":21,
			"componentType":5126,
			"count":2,
			"type":"VEC3"
		},
		{
			"bufferView":22,
			"componentType":5126,
			"count":2,
			"type":"VEC4"
		},
		{
			"bufferView":23,
			"componentType":5126,
			"count":2,
			"type":"VEC3"
		},
		{
			"bufferView":24,
			"componentType":5126,
			"count":2,
			"type":"VEC3"
		},
		{
			"bufferView":25,
			"componentType":5126,
			"count":21,
			"type":"VEC4"
		},
		{
			"bufferView":26,
			"componentType":5126,
			"count":2,
			"type":"VEC3"
		},
		{
			"bufferView":27,
			"componentType":5126,
			"count":2,
			"type":"VEC3"
		},
		{
			"bufferView":28,
			"componentType":5126,
			"count":2,
			"type":"VEC4"
		},
		{
			"bufferView":29,
			"componentType":5126,
			"count":2,
			"type":"VEC3"
		},
		{
			"bufferView":30,
			"componentType":5126,
			"count":2,
			"type":"VEC3"
		},
		{
			"bufferView":31,
			"componentType":5126,
			"count":21,
			"type":"VEC4"
		},
		{
			"bufferView":32,
			"componentType":5126,
			"count":2,
			"type":"VEC3"
		},
		{
			"bufferView":33,
			"componentType":5126,
			"count":2,
			"type":"VEC3"
		},
		{
			"bufferView":34,
			"componentType":5126,
			"count":2,
			"type":"VEC4"
		},
		{
			"bufferView":35,
			"componentType":5126,
			"count":2,
			"type":"VEC3"
		},
		{
			"bufferView":36,
			"componentType":5126,
			"count":33,
			"max":[
				0.5333333333333333
			],
			"min":[
				0
			],
			"type":"SCALAR"
		},
		{
			"bufferView":37,
			"componentType":5126,
			"count":33,
			"type":"VEC3"
		},
		{
			"bufferView":38,
			"componentType":5126,
			"count":33,
			"type":"VEC4"
		},
		{
			"bufferView":39,
			"componentType":5126,
			"count":2,
			"max":[
				0.5333333333333333
			],
			"min":[
				0
			],
			"type":"SCALAR"
		},
		{
			"bufferView":40,
			"componentType":5126,
			"count":2,
			"type":"VEC3"
		},
		{
			"bufferView":41,
			"componentType":5126,
			"count":2,
			"type":"VEC3"
		},
		{
			"bufferView":42,
			"componentType":5126,
			"count":33,
			"type":"VEC4"
		},
		{
			"bufferView":43,
			"componentType":5126,
			"count":2,
			"type":"VEC3"
		},
		{
			"bufferView":44,
			"componentType":5126,
			"count":2,
			"type":"VEC3"
		},
		{
			"bufferView":45,
			"componentType":5126,
			"count":33,
			"type":"VEC4"
		},
		{
			"bufferView":46,
			"componentType":5126,
			"count":2,
			"type":"VEC3"
		},
		{
			"bufferView":47,
			"componentType":5126,
			"count":2,
			"type":"VEC3"
		},
		{
			"bufferView":48,
			"componentType":5126,
			"count":33,
			"type":"VEC4"
		},
		{
			"bufferView":49,
			"componentType":5126,
			"count":2,
			"type":"VEC3"
		},
		{
			"bufferView":50,
			"componentType":5126,
			"count":2,
			"type":"VEC3"
		},
		{
			"bufferView":51,
			"componentType":5126,
			"count":2,
			"type":"VEC4"
		},
		{
			"bufferView":52,
			"componentType":5126,
			"count":2,
			"type":"VEC3"
		},
		{
			"bufferView":53,
			"componentType":5126,
			"count":2,
			"type":"VEC3"
		},
		{
			"bufferView":54,
			"componentType":5126,
			"count":33,
			"type":"VEC4"
		},
		{
			"bufferView":55,
			"componentType":5126,
			"count":2,
			"type":"VEC3"
		},
		{
			"bufferView":56,
			"componentType":5126,
			"count":2,
			"type":"VEC3"
		},
		{
			"bufferView":57,
			"componentType":5126,
			"count":2,
			"type":"VEC4"
		},
		{
			"bufferView":58,
			"componentType":5126,
			"count":2,
			"type":"VEC3"
		},
		{
			"bufferView":59,
			"componentType":5126,
			"count":2,
			"type":"VEC3"
		},
		{
			"bufferView":60,
			"componentType":5126,
			"count":33,
			"type":"VEC4"
		},
		{
			"bufferView":61,
			"componentType":5126,
			"count":2,
			"type":"VEC3"
		},
		{
			"bufferView":62,
			"componentType":5126,
			"count":2,
			"type":"VEC3"
		},
		{
			"bufferView":63,
			"componentType":5126,
			"count":33,
			"type":"VEC4"
		},
		{
			"bufferView":64,
			"componentType":5126,
			"count":2,
			"type":"VEC3"
		},
		{
			"bufferView":65,
			"componentType":5126,
			"count":2,
			"type":"VEC3"
		},
		{
			"bufferView":66,
			"componentType":5126,
			"count":21,
			"type":"VEC4"
		},
		{
			"bufferView":67,
			"componentType":5126,
			"count":2,
			"type":"VEC3"
		},
		{
			"bufferView":68,
			"componentType":5126,
			"count":2,
			"type":"VEC3"
		},
		{
			"bufferView":69,
			"componentType":5126,
			"count":2,
			"type":"VEC4"
		},
		{
			"bufferView":70,
			"componentType":5126,
			"count":2,
			"type":"VEC3"
		},
		{
			"bufferView":71,
			"componentType":5126,
			"count":2,
			"type":"VEC3"
		},
		{
			"bufferView":72,
			"componentType":5126,
			"count":2,
			"type":"VEC4"
		},
		{
			"bufferView":73,
			"componentType":5126,
			"count":2,
			"type":"VEC3"
		},
		{
			"bufferView":74,
			"componentType":5126,
			"count":2,
			"type":"VEC3"
		},
		{
			"bufferView":75,
			"componentType":5126,
			"count":2,
			"type":"VEC4"
		},
		{
			"bufferView":76,
			"componentType":5126,
			"count":2,
			"type":"VEC3"
		},
		{
			"bufferView":77,
			"componentType":5126,
			"count":2,
			"type":"VEC3"
		},
		{
			"bufferView":78,
			"componentType":5126,
			"count":2,
			"type":"VEC4"
		},
		{
			"bufferView":79,
			"componentType":5126,
			"count":2,
			"type":"VEC3"
		},
		{
			"bufferView":80,
			"componentType":5126,
			"count":2,
			"type":"VEC3"
		},
		{
			"bufferView":81,
			"componentType":5126,
			"count":2,
			"type":"VEC4"
		},
		{
			"bufferView":82,
			"componentType":5126,
			"count":2,
			"type":"VEC3"
		},
		{
			"bufferView":83,
			"componentType":5126,
			"count":2,
			"type":"VEC3"
		},
		{
			"bufferView":84,
			"componentType":5126,
			"count":2,
			"type":"VEC4"
		},
		{
			"bufferView":85,
			"componentType":5126,
			"count":2,
			"type":"VEC3"
		},
		{
			"bufferView":86,
			"componentType":5126,
			"count":2,
			"type":"VEC3"
		},
		{
			"bufferView":87,
			"componentType":5126,
			"count":2,
			"type":"VEC4"
		},
		{
			"bufferView":88,
			"componentType":5126,
			"count":2,
			"type":"VEC3"
		},
		{
			"bufferView":89,
			"componentType":5126,
			"count":2,
			"type":"VEC3"
		},
		{
			"bufferView":90,
			"componentType":5126,
			"count":2,
			"type":"VEC4"
		},
		{
			"bufferView":91,
			"componentType":5126,
			"count":2,
			"type":"VEC3"
		},
		{
			"bufferView":92,
			"componentType":5126,
			"count":2,
			"type":"VEC3"
		},
		{
			"bufferView":93,
			"componentType":5126,
			"count":21,
			"type":"VEC4"
		},
		{
			"bufferView":94,
			"componentType":5126,
			"count":2,
			"type":"VEC3"
		},
		{
			"bufferView":95,
			"componentType":5126,
			"count":2,
			"type":"VEC3"
		},
		{
			"bufferView":96,
			"componentType":5126,
			"count":2,
			"type":"VEC4"
		},
		{
			"bufferView":97,
			"componentType":5126,
			"count":2,
			"type":"VEC3"
		},
		{
			"bufferView":98,
			"componentType":5126,
			"count":2,
			"type":"VEC3"
		},
		{
			"bufferView":99,
			"componentType":5126,
			"count":2,
			"type":"VEC4"
		},
		{
			"bufferView":100,
			"componentType":5126,
			"count":2,
			"type":"VEC3"
		},
		{
			"bufferView":101,
			"componentType":5126,
			"count":2,
			"type":"VEC3"
		},
		{
			"bufferView":102,
			"componentType":5126,
			"count":21,
			"type":"VEC4"
		},
		{
			"bufferView":103,
			"componentType":5126,
			"count":2,
			"type":"VEC3"
		},
		{
			"bufferView":104,
			"componentType":5126,
			"count":2,
			"type":"VEC3"
		},
		{
			"bufferView":105,
			"componentType":5126,
			"count":2,
			"type":"VEC4"
		},
		{
			"bufferView":106,
			"componentType":5126,
			"count":2,
			"type":"VEC3"
		},
		{
			"bufferView":107,
			"componentType":5126,
			"count":2,
			"type":"VEC3"
		},
		{
			"bufferView":108,
			"componentType":5126,
			"count":21,
			"type":"VEC4"
		},
		{
			"bufferView":109,
			"componentType":5126,
			"count":2,
			"type":"VEC3"
		},
		{
			"bufferView":110,
			"componentType":5126,
			"count":2,
			"type":"VEC3"
		},
		{
			"bufferView":111,
			"componentType":5126,
			"count":2,
			"type":"VEC4"
		},
		{
			"bufferView":112,
			"componentType":5126,
			"count":2,
			"type":"VEC3"
		},
		{
			"bufferView":113,
			"componentType":5126,
			"count":2,
			"type":"VEC3"
		},
		{
			"bufferView":114,
			"componentType":5126,
			"count":21,
			"type":"VEC4"
		},
		{
			"bufferView":115,
			"componentType":5126,
			"count":2,
			"type":"VEC3"
		},
		{
			"bufferView":116,
			"componentType":5126,
			"count":2,
			"type":"VEC3"
		},
		{
			"bufferView":117,
			"componentType":5126,
			"count":21,
			"type":"VEC4"
		},
		{
			"bufferView":118,
			"componentType":5126,
			"count":2,
			"type":"VEC3"
		},
		{
			"bufferView":119,
			"componentType":5126,
			"count":2,
			"type":"VEC3"
		},
		{
			"bufferView":120,
			"componentType":5126,
			"count":21,
			"type":"VEC4"
		},
		{
			"bufferView":121,
			"componentType":5126,
			"count":2,
			"type":"VEC3"
		},
		{
			"bufferView":122,
			"componentType":5126,
			"count":2,
			"type":"VEC3"
		},
		{
			"bufferView":123,
			"componentType":5126,
			"count":2,
			"type":"VEC4"
		},
		{
			"bufferView":124,
			"componentType":5126,
			"count":2,
			"type":"VEC3"
		},
		{
			"bufferView":125,
			"componentType":5126,
			"count":2,
			"type":"VEC3"
		},
		{
			"bufferView":126,
			"componentType":5126,
			"count":2,
			"type":"VEC4"
		},
		{
			"bufferView":127,
			"componentType":5126,
			"count":2,
			"type":"VEC3"
		},
		{
			"bufferView":128,
			"componentType":5126,
			"count":2,
			"type":"VEC3"
		},
		{
			"bufferView":129,
			"componentType":5126,
			"count":21,
			"type":"VEC4"
		},
		{
			"bufferView":130,
			"componentType":5126,
			"count":2,
			"type":"VEC3"
		},
		{
			"bufferView":131,
			"componentType":5126,
			"count":2,
			"type":"VEC3"
		},
		{
			"bufferView":132,
			"componentType":5126,
			"count":2,
			"type":"VEC4"
		},
		{
			"bufferView":133,
			"componentType":5126,
			"count":2,
			"type":"VEC3"
		},
		{
			"bufferView":134,
			"componentType":5126,
			"count":2,
			"type":"VEC3"
		},
		{
			"bufferView":135,
			"componentType":5126,
			"count":21,
			"type":"VEC4"
		},
		{
			"bufferView":136,
			"componentType":5126,
			"count":2,
			"type":"VEC3"
		},
		{
			"bufferView":137,
			"componentType":5126,
			"count":2,
			"type":"VEC3"
		},
		{
			"bufferView":138,
			"componentType":5126,
			"count":2,
			"type":"VEC4"
		},
		{
			"bufferView":139,
			"componentType":5126,
			"count":2,
			"type":"VEC3"
		},
		{
			"bufferView":140,
			"componentType":5126,
			"count":2,
			"type":"VEC3"
		},
		{
			"bufferView":141,
			"componentType":5126,
			"count":21,
			"type":"VEC4"
		},
		{
			"bufferView":142,
			"componentType":5126,
			"count":2,
			"type":"VEC3"
		},
		{
			"bufferView":143,
			"componentType":5126,
			"count":2,
			"type":"VEC3"
		},
		{
			"bufferView":144,
			"componentType":5126,
			"count":21,
			"type":"VEC4"
		},
		{
			"bufferView":145,
			"componentType":5126,
			"count":2,
			"type":"VEC3"
		}
	],
	"bufferViews":[
		{
			"buffer":0,
			"byteLength":14916,
			"byteOffset":0,
			"target":34962
		},
		{
			"buffer":0,
			"byteLength":14916,
			"byteOffset":14916,
			"target":34962
		},
		{
			"buffer":0,
			"byteLength":9944,
			"byteOffset":29832,
			"target":34962
		},
		{
			"buffer":0,
			"byteLength":4972,
			"byteOffset":39776,
			"target":34962
		},
		{
			"buffer":0,
			"byteLength":19888,
			"byteOffset":44748,
			"target":34962
		},
		{
			"buffer":0,
			"byteLength":11796,
			"byteOffset":64636,
			"target":34963
		},
		{
			"buffer":0,
			"byteLength":576,
			"byteOffset":76432
		},
		{
			"buffer":0,
			"byteLength":8,
			"byteOffset":77008
		},
		{
			"buffer":0,
			"byteLength":24,
			"byteOffset":77016
		},
		{
			"buffer":0,
			"byteLength":32,
			"byteOffset":77040
		},
		{
			"buffer":0,
			"byteLength":24,
			"byteOffset":77072
		},
		{
			"buffer":0,
			"byteLength":24,
			"byteOffset":77096
		},
		{
			"buffer":0,
			"byteLength":32,
			"byteOffset":77120
		},
		{
			"buffer":0,
			"byteLength":24,
			"byteOffset":77152
		},
		{
			"buffer":0,
			"byteLength":24,
			"byteOffset":77176
		},
		{
			"buffer":0,
			"byteLength":32,
			"byteOffset":77200
		},
		{
			"buffer":0,
			"byteLength":24,
			"byteOffset":77232
		},
		{
			"buffer":0,
			"byteLength":24,
			"byteOffset":77256
		},
		{
			"buffer":0,
			"byteLength":84,
			"byteOffset":77280
		},
		{
			"buffer":0,
			"byteLength":336,
			"byteOffset":77364
		},
		{
			"buffer":0,
			"byteLength":24,
			"byteOffset":77700
		},
		{
			"buffer":0,
			"byteLength":24,
			"byteOffset":77724
		},
		{
			"buffer":0,
			"byteLength":32,
			"byteOffset":77748
		},
		{
			"buffer":0,
			"byteLength":24,
			"byteOffset":77780
		},
		{
			"buffer":0,
			"byteLength":24,
			"byteOffset":77804
		},
		{
			"buffer":0,
			"byteLength":336,
			"byteOffset":77828
		},
		{
			"buffer":0,
			"byteLength":24,
			"byteOffset":78164
		},
		{
			"buffer":0,
			"byteLength":24,
			"byteOffset":78188
		},
		{
			"buffer":0,
			"byteLength":32,
			"byteOffset":78212
		},
		{
			"buffer":0,
			"byteLength":24,
			"byteOffset":78244
		},
		{
			"buffer":0,
			"byteLength":24,
			"byteOffset":78268
		},
		{
			"buffer":0,
			"byteLength":336,
			"byteOffset":78292
		},
		{
			"buffer":0,
			"byteLength":24,
			"byteOffset":78628
		},
		{
			"buffer":0,
			"byteLength":24,
			"byteOffset":78652
		},
		{
			"buffer":0,
			"byteLength":32,
			"byteOffset":78676
		},
		{
			"buffer":0,
			"byteLength":24,
			"byteOffset":78708
		},
		{
			"buffer":0,
			"byteLength":132,
			"byteOffset":78732
		},
		{
			"buffer":0,
			"byteLength":396,
			"byteOffset":78864
		},
		{
			"buffer":0,
			"byteLength":528,
			"byteOffset":79260
		},
		{
			"buffer":0,
			"byteLength":8,
			"byteOffset":79788
		},
		{
			"buffer":0,
			"byteLength":24,
			"byteOffset":79796
		},
		{
			"buffer":0,
			"byteLength":24,
			"byteOffset":79820
		},
		{
			"buffer":0,
			"byteLength":528,
			"byteOffset":79844
		},
		{
			"buffer":0,
			"byteLength":24,
			"byteOffset":80372
		},
		{
			"buffer":0,
			"byteLength":24,
			"byteOffset":80396
		},
		{
			"buffer":0,
			"byteLength":528,
			"byteOffset":80420
		},
		{
			"buffer":0,
			"byteLength":24,
			"byteOffset":80948
		},
		{
			"buffer":0,
			"byteLength":24,
			"byteOffset":80972
		},
		{
			"buffer":0,
			"byteLength":528,
			"byteOffset":80996
		},
		{
			"buffer":0,
			"byteLength":24,
			"byteOffset":81524
		},
		{
			"buffer":0,
			"byteLength":24,
			"byteOffset":81548
		},
		{
			"buffer":0,
			"byteLength":32,
			"byteOffset":81572
		},
		{
			"buffer":0,
			"byteLength":24,
			"byteOffset":81604
		},
		{
			"buffer":0,
			"byteLength":24,
			"byteOffset":81628
		},
		{
			"buffer":0,
			"byteLength":528,
			"byteOffset":81652
		},
		{
			"buffer":0,
			"byteLength":24,
			"byteOffset":82180
		},
		{
			"buffer":0,
			"byteLength":24,
			"byteOffset":82204
		},
		{
			"buffer":0,
			"byteLength":32,
			"byteOffset":82228
		},
		{
			"buffer":0,
			"byteLength":24,
			"byteOffset":82260
		},
		{
			"buffer":0,
			"byteLength":24,
			"byteOffset":82284
		},
		{
			"buffer":0,
			"byteLength":528,
			"byteOffset":82308
		},
		{
			"buffer":0,
			"byteLength":24,
			"byteOffset":82836
		},
		{
			"buffer":0,
			"byteLength":24,
			"byteOffset":82860
		},
		{
			"buffer":0,
			"byteLength":528,
			"byteOffset":82884
		},
		{
			"buffer":0,
			"byteLength":24,
			"byteOffset":83412
		},
		{
			"buffer":0,
			"byteLength":24,
			"byteOffset":83436
		},
		{
			"buffer":0,
			"byteLength":336,
			"byteOffset":83460
		},
		{
			"buffer":0,
			"byteLength":24,
			"byteOffset":83796
		},
		{
			"buffer":0,
			"byteLength":24,
			"byteOffset":83820
		},
		{
			"buffer":0,
			"byteLength":32,
			"byteOffset":83844
		},
		{
			"buffer":0,
			"byteLength":24,
			"byteOffset":83876
		},
		{
			"buffer":0,
			"byteLength":24,
			"byteOffset":83900
		},
		{
			"buffer":0,
			"byteLength":32,
			"byteOffset":83924
		},
		{
			"buffer":0,
			"byteLength":24,
			"byteOffset":83956
		},
		{
			"buffer":0,
			"byteLength":24,
			"byteOffset":83980
		},
		{
			"buffer":0,
			"byteLength":32,
			"byteOffset":84004
		},
		{
			"buffer":0,
			"byteLength":24,
			"byteOffset":84036
		},
		{
			"buffer":0,
			"byteLength":24,
			"byteOffset":84060
		},
		{
			"buffer":0,
			"byteLength":32,
			"byteOffset":84084
		},
		{
			"buffer":0,
			"byteLength":24,
			"byteOffset":84116
		},
		{
			"buffer":0,
			"byteLength":24,
			"byteOffset":84140
		},
		{
			"buffer":0,
			"byteLength":32,
			"byteOffset":84164
		},
		{
			"buffer":0,
			"byteLength":24,
			"byteOffset":84196
		},
		{
			"buffer":0,
			"byteLength":24,
			"byteOffset":84220
		},
		{
			"buffer":0,
			"byteLength":32,
			"byteOffset":84244
		},
		{
			"buffer":0,
			"byteLength":24,
			"byteOffset":84276
		},
		{
			"buffer":0,
			"byteLength":24,
			"byteOffset":84300
		},
		{
			"buffer":0,
			"byteLength":32,
			"byteOffset":84324
		},
		{
			"buffer":0,
			"byteLength":24,
			"byteOffset":84356
		},
		{
			"buffer":0,
			"byteLength":24,
			"byteOffset":84380
		},
		{
			"buffer":0,
			"byteLength":32,
			"byteOffset":84404
		},
		{
			"buffer":0,
			"byteLength":24,
			"byteOffset":84436
		},
		{
			"buffer":0,
			"byteLength":24,
			"byteOffset":84460
		},
		{
			"buffer":0,
			"byteLength":336,
			"byteOffset":84484
		},
		{
			"buffer":0,
			"byteLength":24,
			"byteOffset":84820
		},
		{
			"buffer":0,
			"byteLength":24,
			"byteOffset":84844
		},
		{
			"buffer":0,
			"byteLength":32,
			"byteOffset":84868
		},
		{
			"buffer":0,
			"byteLength":24,
			"byteOffset":84900
		},
		{
			"buffer":0,
			"byteLength":24,
			"byteOffset":84924
		},
		{
			"buffer":0,
			"byteLength":32,
			"byteOffset":84948
		},
		{
			"buffer":0,
			"byteLength":24,
			"byteOffset":84980
		},
		{
			"buffer":0,
			"byteLength":24,
			"byteOffset":85004
		},
		{
			"buffer":0,
			"byteLength":336,
			"byteOffset":85028
		},
		{
			"buffer":0,
			"byteLength":24,
			"byteOffset":85364
		},
		{
			"buffer":0,
			"byteLength":24,
			"byteOffset":85388
		},
		{
			"buffer":0,
			"byteLength":32,
			"byteOffset":85412
		},
		{
			"buffer":0,
			"byteLength":24,
			"byteOffset":85444
		},
		{
			"buffer":0,
			"byteLength":24,
			"byteOffset":85468
		},
		{
			"buffer":0,
			"byteLength":336,
			"byteOffset":85492
		},
		{
			"buffer":0,
			"byteLength":24,
			"byteOffset":85828
		},
		{
			"buffer":0,
			"byteLength":24,
			"byteOffset":85852
		},
		{
			"buffer":0,
			"byteLength":32,
			"byteOffset":85876
		},
		{
			"buffer":0,
			"byteLength":24,
			"byteOffset":85908
		},
		{
			"buffer":0,
			"byteLength":24,
			"byteOffset":85932
		},
		{
			"buffer":0,
			"byteLength":336,
			"byteOffset":85956
		},
		{
			"buffer":0,
			"byteLength":24,
			"byteOffset":86292
		},
		{
			"buffer":0,
			"byteLength":24,
			"byteOffset":86316
		},
		{
			"buffer":0,
			"byteLength":336,
			"byteOffset":86340
		},
		{
			"buffer":0,
			"byteLength":24,
			"byteOffset":86676
		},
		{
			"buffer":0,
			"byteLength":24,
			"byteOffset":86700
		},
		{
			"buffer":0,
			"byteLength":336,
			"byteOffset":86724
		},
		{
			"buffer":0,
			"byteLength":24,
			"byteOffset":87060
		},
		{
			"buffer":0,
			"byteLength":24,
			"byteOffset":87084
		},
		{
			"buffer":0,
			"byteLength":32,
			"byteOffset":87108
		},
		{
			"buffer":0,
			"byteLength":24,
			"byteOffset":87140
		},
		{
			"buffer":0,
			"byteLength":24,
			"byteOffset":87164
		},
		{
			"buffer":0,
			"byteLength":32,
			"byteOffset":87188
		},
		{
			"buffer":0,
			"byteLength":24,
			"byteOffset":87220
		},
		{
			"buffer":0,
			"byteLength":24,
			"byteOffset":87244
		},
		{
			"buffer":0,
			"byteLength":336,
			"byteOffset":87268
		},
		{
			"buffer":0,
			"byteLength":24,
			"byteOffset":87604
		},
		{
			"buffer":0,
			"byteLength":24,
			"byteOffset":87628
		},
		{
			"buffer":0,
			"byteLength":32,
			"byteOffset":87652
		},
		{
			"buffer":0,
			"byteLength":24,
			"byteOffset":87684
		},
		{
			"buffer":0,
			"byteLength":24,
			"byteOffset":87708
		},
		{
			"buffer":0,
			"byteLength":336,
			"byteOffset":87732
		},
		{
			"buffer":0,
			"byteLength":24,
			"byteOffset":88068
		},
		{
			"buffer":0,
			"byteLength":24,
			"byteOffset":88092
		},
		{
			"buffer":0,
			"byteLength":32,
			"byteOffset":88116
		},
		{
			"buffer":0,
			"byteLength":24,
			"byteOffset":88148
		},
		{
			"buffer":0,
			"byteLength":24,
			"byteOffset":88172
		},
		{
			"buffer":0,
			"byteLength":336,
			"byteOffset":88196
		},
		{
			"buffer":0,
			"byteLength":24,
			"byteOffset":88532
		},
		{
			"buffer":0,
			"byteLength":24,
			"byteOffset":88556
		},
		{
			"buffer":0,
			"byteLength":336,
			"byteOffset":88580
		},
		{
			"buffer":0,
			"byteLength":24,
			"byteOffset":88916
		}
	],
	"samplers":[
		{
			"magFilter":9729,
			"minFilter":9987
		}
	],
	"buffers":[
		{
			"byteLength":88940,
			"uri":"soldier.bin"
		}
	]
}
