{
	"asset":{
		"generator":"Khronos glTF Blender I/O v4.4.56",
		"version":"2.0"
	},
	"scene":0,
	"scenes":[
		{
			"name":"Scene",
			"nodes":[
				17
			]
		}
	],
	"nodes":[
		{
			"name":"\u30dc\u30fc\u30f3.003",
			"rotation":[
				0.045688968151807785,
				0.005190139636397362,
				0.018388714641332626,
				0.9987729787826538
			],
			"scale":[
				1,
				1,
				0.9999999403953552
			],
			"translation":[
				-9.487848728895187e-09,
				0.5564593076705933,
				-7.450580596923828e-09
			]
		},
		{
			"children":[
				0
			],
			"name":"\u30dc\u30fc\u30f3.002",
			"rotation":[
				0.04149013012647629,
				0.009847265668213367,
				0.018613329157233238,
				0.9989169836044312
			],
			"scale":[
				1,
				0.9999998807907104,
				1
			],
			"translation":[
				6.51925802230835e-08,
				0.5246976613998413,
				-1.3969838619232178e-08
			]
		},
		{
			"children":[
				1
			],
			"name":"\u30dc\u30fc\u30f3.001",
			"rotation":[
				-0.031185943633317947,
				0.004457083996385336,
				-0.17246976494789124,
				0.9845108985900879
			],
			"scale":[
				1,
				1,
				0.9999999403953552
			],
			"translation":[
				0.3897722661495209,
				1.56024968624115,
				-0.2869994640350342
			]
		},
		{
			"name":"\u30dc\u30fc\u30f3.007",
			"rotation":[
				0.04605380445718765,
				-0.008910540491342545,
				0.017454782500863075,
				0.9987466931343079
			],
			"translation":[
				1.4224497135728598e-09,
				0.5564592480659485,
				6.461050361394882e-09
			]
		},
		{
			"children":[
				3
			],
			"name":"\u30dc\u30fc\u30f3.006",
			"rotation":[
				0.04136757552623749,
				-0.002920351456850767,
				0.018884170800447464,
				0.9989612698554993
			],
			"scale":[
				0.9999999403953552,
				1,
				1
			],
			"translation":[
				-7.450580596923828e-09,
				0.5246979594230652,
				-1.57160684466362e-08
			]
		},
		{
			"children":[
				4
			],
			"name":"\u30dc\u30fc\u30f3.005",
			"rotation":[
				-0.03130347281694412,
				0.009301210753619671,
				-0.02059105969965458,
				0.9992545247077942
			],
			"scale":[
				0.9999999403953552,
				0.9999998807907104,
				0.9999998807907104
			],
			"translation":[
				-0.052190445363521576,
				1.794064998626709,
				-0.351756751537323
			]
		},
		{
			"name":"\u30dc\u30fc\u30f3.010",
			"rotation":[
				0.04625387489795685,
				-0.016973473131656647,
				0.016917314380407333,
				0.9986422657966614
			],
			"scale":[
				1,
				1,
				1.0000001192092896
			],
			"translation":[
				6.669142749160528e-08,
				0.5564594268798828,
				-2.3283064365386963e-08
			]
		},
		{
			"children":[
				6
			],
			"name":"\u30dc\u30fc\u30f3.009",
			"rotation":[
				0.04129662737250328,
				-0.010221628472208977,
				0.019038790836930275,
				0.9989132285118103
			],
			"scale":[
				1,
				0.9999998807907104,
				1
			],
			"translation":[
				-9.022187441587448e-10,
				0.5246977806091309,
				4.190951585769653e-08
			]
		},
		{
			"children":[
				7
			],
			"name":"\u30dc\u30fc\u30f3.008",
			"rotation":[
				-0.03236556425690651,
				0.012037480250000954,
				0.06667319685220718,
				0.9971771836280823
			],
			"scale":[
				0.9999999403953552,
				0.9999998211860657,
				0.9999998807907104
			],
			"translation":[
				-0.5449354648590088,
				1.6802197694778442,
				-0.33715400099754333
			]
		},
		{
			"name":"\u30dc\u30fc\u30f3.013",
			"rotation":[
				0.033652689307928085,
				-0.02178877778351307,
				-0.0010181443067267537,
				0.9991955161094666
			],
			"scale":[
				0.9999998807907104,
				0.9999998807907104,
				0.9999998807907104
			],
			"translation":[
				1.3248063623905182e-07,
				0.4245849847793579,
				-3.3527612686157227e-08
			]
		},
		{
			"children":[
				9
			],
			"name":"\u30dc\u30fc\u30f3.012",
			"rotation":[
				0.0074029103852808475,
				-0.01038763765245676,
				0.01764572225511074,
				0.9997629523277283
			],
			"scale":[
				0.9999998807907104,
				0.9999998807907104,
				0.9999998807907104
			],
			"translation":[
				-6.146728992462158e-08,
				0.3950822055339813,
				-9.313225746154785e-09
			]
		},
		{
			"children":[
				10
			],
			"name":"\u30dc\u30fc\u30f3.011",
			"rotation":[
				0.005451860371977091,
				0.013552027754485607,
				0.14987719058990479,
				0.9885967373847961
			],
			"scale":[
				0.9999999403953552,
				0.9999998807907104,
				0.9999998807907104
			],
			"translation":[
				-0.9563602805137634,
				1.6612972021102905,
				-0.34099411964416504
			]
		},
		{
			"name":"\u30dc\u30fc\u30f3.004",
			"rotation":[
				-0.08923777937889099,
				0.010435100644826889,
				-0.026390831917524338,
				0.995606005191803
			],
			"scale":[
				1,
				0.9999999403953552,
				1
			],
			"translation":[
				-0.3018847107887268,
				-0.12186241894960403,
				0.10424352437257767
			]
		},
		{
			"name":"\u30dc\u30fc\u30f3.016",
			"rotation":[
				0.11713926494121552,
				-0.0022243147250264883,
				0.2864968478679657,
				0.9508906602859497
			],
			"scale":[
				1,
				1.0000001192092896,
				1
			],
			"translation":[
				1.5087425708770752e-07,
				0.5731972455978394,
				3.632158041000366e-08
			]
		},
		{
			"children":[
				13
			],
			"name":"\u30dc\u30fc\u30f3.015",
			"rotation":[
				0.011700501665472984,
				0.01120385155081749,
				0.09578881412744522,
				0.9952698349952698
			],
			"scale":[
				0.9999999403953552,
				1,
				1
			],
			"translation":[
				-5.3551048040390015e-08,
				0.4193398058414459,
				3.725290298461914e-09
			]
		},
		{
			"children":[
				14
			],
			"name":"\u30dc\u30fc\u30f3.014",
			"rotation":[
				-0.02401198260486126,
				-0.004409596789628267,
				-0.5648530721664429,
				0.8248302936553955
			],
			"scale":[
				0.9999998807907104,
				0.9999997615814209,
				0.9999998807907104
			],
			"translation":[
				0.4955172836780548,
				0.5594913363456726,
				0.10017991065979004
			]
		},
		{
			"mesh":0,
			"name":"\u7acb\u65b9\u4f53",
			"skin":0
		},
		{
			"children":[
				16,
				2,
				5,
				8,
				11,
				12,
				15
			],
			"name":"\u30a2\u30fc\u30de\u30c1\u30e5\u30a2",
			"rotation":[
				0.7692877650260925,
				0,
				0,
				0.6389024257659912
			],
			"translation":[
				0.08993634581565857,
				0.15864098072052002,
				-1.4175477027893066
			]
		}
	],
	"animations":[
		{
			"channels":[
				{
					"sampler":0,
					"target":{
						"node":2,
						"path":"translation"
					}
				},
				{
					"sampler":1,
					"target":{
						"node":2,
						"path":"rotation"
					}
				},
				{
					"sampler":2,
					"target":{
						"node":2,
						"path":"scale"
					}
				},
				{
					"sampler":3,
					"target":{
						"node":1,
						"path":"translation"
					}
				},
				{
					"sampler":4,
					"target":{
						"node":1,
						"path":"rotation"
					}
				},
				{
					"sampler":5,
					"target":{
						"node":1,
						"path":"scale"
					}
				},
				{
					"sampler":6,
					"target":{
						"node":0,
						"path":"translation"
					}
				},
				{
					"sampler":7,
					"target":{
						"node":0,
						"path":"rotation"
					}
				},
				{
					"sampler":8,
					"target":{
						"node":0,
						"path":"scale"
					}
				},
				{
					"sampler":9,
					"target":{
						"node":5,
						"path":"translation"
					}
				},
				{
					"sampler":10,
					"target":{
						"node":5,
						"path":"rotation"
					}
				},
				{
					"sampler":11,
					"target":{
						"node":5,
						"path":"scale"
					}
				},
				{
					"sampler":12,
					"target":{
						"node":4,
						"path":"translation"
					}
				},
				{
					"sampler":13,
					"target":{
						"node":4,
						"path":"rotation"
					}
				},
				{
					"sampler":14,
					"target":{
						"node":4,
						"path":"scale"
					}
				},
				{
					"sampler":15,
					"target":{
						"node":3,
						"path":"translation"
					}
				},
				{
					"sampler":16,
					"target":{
						"node":3,
						"path":"rotation"
					}
				},
				{
					"sampler":17,
					"target":{
						"node":3,
						"path":"scale"
					}
				},
				{
					"sampler":18,
					"target":{
						"node":8,
						"path":"translation"
					}
				},
				{
					"sampler":19,
					"target":{
						"node":8,
						"path":"rotation"
					}
				},
				{
					"sampler":20,
					"target":{
						"node":8,
						"path":"scale"
					}
				},
				{
					"sampler":21,
					"target":{
						"node":7,
						"path":"translation"
					}
				},
				{
					"sampler":22,
					"target":{
						"node":7,
						"path":"rotation"
					}
				},
				{
					"sampler":23,
					"target":{
						"node":7,
						"path":"scale"
					}
				},
				{
					"sampler":24,
					"target":{
						"node":6,
						"path":"translation"
					}
				},
				{
					"sampler":25,
					"target":{
						"node":6,
						"path":"rotation"
					}
				},
				{
					"sampler":26,
					"target":{
						"node":6,
						"path":"scale"
					}
				},
				{
					"sampler":27,
					"target":{
						"node":11,
						"path":"translation"
					}
				},
				{
					"sampler":28,
					"target":{
						"node":11,
						"path":"rotation"
					}
				},
				{
					"sampler":29,
					"target":{
						"node":11,
						"path":"scale"
					}
				},
				{
					"sampler":30,
					"target":{
						"node":10,
						"path":"translation"
					}
				},
				{
					"sampler":31,
					"target":{
						"node":10,
						"path":"rotation"
					}
				},
				{
					"sampler":32,
					"target":{
						"node":10,
						"path":"scale"
					}
				},
				{
					"sampler":33,
					"target":{
						"node":9,
						"path":"translation"
					}
				},
				{
					"sampler":34,
					"target":{
						"node":9,
						"path":"rotation"
					}
				},
				{
					"sampler":35,
					"target":{
						"node":9,
						"path":"scale"
					}
				},
				{
					"sampler":36,
					"target":{
						"node":12,
						"path":"translation"
					}
				},
				{
					"sampler":37,
					"target":{
						"node":12,
						"path":"rotation"
					}
				},
				{
					"sampler":38,
					"target":{
						"node":12,
						"path":"scale"
					}
				},
				{
					"sampler":39,
					"target":{
						"node":15,
						"path":"translation"
					}
				},
				{
					"sampler":40,
					"target":{
						"node":15,
						"path":"rotation"
					}
				},
				{
					"sampler":41,
					"target":{
						"node":15,
						"path":"scale"
					}
				},
				{
					"sampler":42,
					"target":{
						"node":14,
						"path":"translation"
					}
				},
				{
					"sampler":43,
					"target":{
						"node":14,
						"path":"rotation"
					}
				},
				{
					"sampler":44,
					"target":{
						"node":14,
						"path":"scale"
					}
				},
				{
					"sampler":45,
					"target":{
						"node":13,
						"path":"translation"
					}
				},
				{
					"sampler":46,
					"target":{
						"node":13,
						"path":"rotation"
					}
				},
				{
					"sampler":47,
					"target":{
						"node":13,
						"path":"scale"
					}
				}
			],
			"name":"call",
			"samplers":[
				{
					"input":7,
					"interpolation":"LINEAR",
					"output":8
				},
				{
					"input":7,
					"interpolation":"LINEAR",
					"output":9
				},
				{
					"input":10,
					"interpolation":"STEP",
					"output":11
				},
				{
					"input":10,
					"interpolation":"STEP",
					"output":12
				},
				{
					"input":7,
					"interpolation":"LINEAR",
					"output":13
				},
				{
					"input":10,
					"interpolation":"STEP",
					"output":14
				},
				{
					"input":10,
					"interpolation":"STEP",
					"output":15
				},
				{
					"input":7,
					"interpolation":"LINEAR",
					"output":16
				},
				{
					"input":10,
					"interpolation":"STEP",
					"output":17
				},
				{
					"input":7,
					"interpolation":"LINEAR",
					"output":18
				},
				{
					"input":7,
					"interpolation":"LINEAR",
					"output":19
				},
				{
					"input":10,
					"interpolation":"STEP",
					"output":20
				},
				{
					"input":10,
					"interpolation":"STEP",
					"output":21
				},
				{
					"input":10,
					"interpolation":"STEP",
					"output":22
				},
				{
					"input":10,
					"interpolation":"STEP",
					"output":23
				},
				{
					"input":10,
					"interpolation":"STEP",
					"output":24
				},
				{
					"input":10,
					"interpolation":"STEP",
					"output":25
				},
				{
					"input":10,
					"interpolation":"STEP",
					"output":26
				},
				{
					"input":7,
					"interpolation":"LINEAR",
					"output":27
				},
				{
					"input":7,
					"interpolation":"LINEAR",
					"output":28
				},
				{
					"input":10,
					"interpolation":"STEP",
					"output":29
				},
				{
					"input":10,
					"interpolation":"STEP",
					"output":30
				},
				{
					"input":10,
					"interpolation":"STEP",
					"output":31
				},
				{
					"input":10,
					"interpolation":"STEP",
					"output":32
				},
				{
					"input":10,
					"interpolation":"STEP",
					"output":33
				},
				{
					"input":10,
					"interpolation":"STEP",
					"output":34
				},
				{
					"input":10,
					"interpolation":"STEP",
					"output":35
				},
				{
					"input":7,
					"interpolation":"LINEAR",
					"output":36
				},
				{
					"input":7,
					"interpolation":"LINEAR",
					"output":37
				},
				{
					"input":10,
					"interpolation":"STEP",
					"output":38
				},
				{
					"input":10,
					"interpolation":"STEP",
					"output":39
				},
				{
					"input":10,
					"interpolation":"STEP",
					"output":40
				},
				{
					"input":10,
					"interpolation":"STEP",
					"output":41
				},
				{
					"input":10,
					"interpolation":"STEP",
					"output":42
				},
				{
					"input":10,
					"interpolation":"STEP",
					"output":43
				},
				{
					"input":10,
					"interpolation":"STEP",
					"output":44
				},
				{
					"input":7,
					"interpolation":"LINEAR",
					"output":45
				},
				{
					"input":7,
					"interpolation":"LINEAR",
					"output":46
				},
				{
					"input":10,
					"interpolation":"STEP",
					"output":47
				},
				{
					"input":7,
					"interpolation":"LINEAR",
					"output":48
				},
				{
					"input":7,
					"interpolation":"LINEAR",
					"output":49
				},
				{
					"input":10,
					"interpolation":"STEP",
					"output":50
				},
				{
					"input":10,
					"interpolation":"STEP",
					"output":51
				},
				{
					"input":7,
					"interpolation":"LINEAR",
					"output":52
				},
				{
					"input":10,
					"interpolation":"STEP",
					"output":53
				},
				{
					"input":10,
					"interpolation":"STEP",
					"output":54
				},
				{
					"input":7,
					"interpolation":"LINEAR",
					"output":55
				},
				{
					"input":10,
					"interpolation":"STEP",
					"output":56
				}
			]
		},
		{
			"channels":[
				{
					"sampler":0,
					"target":{
						"node":2,
						"path":"translation"
					}
				},
				{
					"sampler":1,
					"target":{
						"node":2,
						"path":"rotation"
					}
				},
				{
					"sampler":2,
					"target":{
						"node":2,
						"path":"scale"
					}
				},
				{
					"sampler":3,
					"target":{
						"node":1,
						"path":"translation"
					}
				},
				{
					"sampler":4,
					"target":{
						"node":1,
						"path":"rotation"
					}
				},
				{
					"sampler":5,
					"target":{
						"node":1,
						"path":"scale"
					}
				},
				{
					"sampler":6,
					"target":{
						"node":0,
						"path":"translation"
					}
				},
				{
					"sampler":7,
					"target":{
						"node":0,
						"path":"rotation"
					}
				},
				{
					"sampler":8,
					"target":{
						"node":0,
						"path":"scale"
					}
				},
				{
					"sampler":9,
					"target":{
						"node":5,
						"path":"translation"
					}
				},
				{
					"sampler":10,
					"target":{
						"node":5,
						"path":"rotation"
					}
				},
				{
					"sampler":11,
					"target":{
						"node":5,
						"path":"scale"
					}
				},
				{
					"sampler":12,
					"target":{
						"node":4,
						"path":"translation"
					}
				},
				{
					"sampler":13,
					"target":{
						"node":4,
						"path":"rotation"
					}
				},
				{
					"sampler":14,
					"target":{
						"node":4,
						"path":"scale"
					}
				},
				{
					"sampler":15,
					"target":{
						"node":3,
						"path":"translation"
					}
				},
				{
					"sampler":16,
					"target":{
						"node":3,
						"path":"rotation"
					}
				},
				{
					"sampler":17,
					"target":{
						"node":3,
						"path":"scale"
					}
				},
				{
					"sampler":18,
					"target":{
						"node":8,
						"path":"translation"
					}
				},
				{
					"sampler":19,
					"target":{
						"node":8,
						"path":"rotation"
					}
				},
				{
					"sampler":20,
					"target":{
						"node":8,
						"path":"scale"
					}
				},
				{
					"sampler":21,
					"target":{
						"node":7,
						"path":"translation"
					}
				},
				{
					"sampler":22,
					"target":{
						"node":7,
						"path":"rotation"
					}
				},
				{
					"sampler":23,
					"target":{
						"node":7,
						"path":"scale"
					}
				},
				{
					"sampler":24,
					"target":{
						"node":6,
						"path":"translation"
					}
				},
				{
					"sampler":25,
					"target":{
						"node":6,
						"path":"rotation"
					}
				},
				{
					"sampler":26,
					"target":{
						"node":6,
						"path":"scale"
					}
				},
				{
					"sampler":27,
					"target":{
						"node":11,
						"path":"translation"
					}
				},
				{
					"sampler":28,
					"target":{
						"node":11,
						"path":"rotation"
					}
				},
				{
					"sampler":29,
					"target":{
						"node":11,
						"path":"scale"
					}
				},
				{
					"sampler":30,
					"target":{
						"node":10,
						"path":"translation"
					}
				},
				{
					"sampler":31,
					"target":{
						"node":10,
						"path":"rotation"
					}
				},
				{
					"sampler":32,
					"target":{
						"node":10,
						"path":"scale"
					}
				},
				{
					"sampler":33,
					"target":{
						"node":9,
						"path":"translation"
					}
				},
				{
					"sampler":34,
					"target":{
						"node":9,
						"path":"rotation"
					}
				},
				{
					"sampler":35,
					"target":{
						"node":9,
						"path":"scale"
					}
				},
				{
					"sampler":36,
					"target":{
						"node":12,
						"path":"translation"
					}
				},
				{
					"sampler":37,
					"target":{
						"node":12,
						"path":"rotation"
					}
				},
				{
					"sampler":38,
					"target":{
						"node":12,
						"path":"scale"
					}
				},
				{
					"sampler":39,
					"target":{
						"node":15,
						"path":"translation"
					}
				},
				{
					"sampler":40,
					"target":{
						"node":15,
						"path":"rotation"
					}
				},
				{
					"sampler":41,
					"target":{
						"node":15,
						"path":"scale"
					}
				},
				{
					"sampler":42,
					"target":{
						"node":14,
						"path":"translation"
					}
				},
				{
					"sampler":43,
					"target":{
						"node":14,
						"path":"rotation"
					}
				},
				{
					"sampler":44,
					"target":{
						"node":14,
						"path":"scale"
					}
				},
				{
					"sampler":45,
					"target":{
						"node":13,
						"path":"translation"
					}
				},
				{
					"sampler":46,
					"target":{
						"node":13,
						"path":"rotation"
					}
				},
				{
					"sampler":47,
					"target":{
						"node":13,
						"path":"scale"
					}
				}
			],
			"name":"call_end",
			"samplers":[
				{
					"input":57,
					"interpolation":"STEP",
					"output":58
				},
				{
					"input":59,
					"interpolation":"LINEAR",
					"output":60
				},
				{
					"input":57,
					"interpolation":"STEP",
					"output":61
				},
				{
					"input":57,
					"interpolation":"LINEAR",
					"output":62
				},
				{
					"input":57,
					"interpolation":"LINEAR",
					"output":63
				},
				{
					"input":57,
					"interpolation":"LINEAR",
					"output":64
				},
				{
					"input":57,
					"interpolation":"LINEAR",
					"output":65
				},
				{
					"input":57,
					"interpolation":"LINEAR",
					"output":66
				},
				{
					"input":57,
					"interpolation":"STEP",
					"output":67
				},
				{
					"input":57,
					"interpolation":"LINEAR",
					"output":68
				},
				{
					"input":59,
					"interpolation":"LINEAR",
					"output":69
				},
				{
					"input":57,
					"interpolation":"STEP",
					"output":70
				},
				{
					"input":57,
					"interpolation":"LINEAR",
					"output":71
				},
				{
					"input":59,
					"interpolation":"LINEAR",
					"output":72
				},
				{
					"input":57,
					"interpolation":"STEP",
					"output":73
				},
				{
					"input":57,
					"interpolation":"LINEAR",
					"output":74
				},
				{
					"input":59,
					"interpolation":"LINEAR",
					"output":75
				},
				{
					"input":57,
					"interpolation":"STEP",
					"output":76
				},
				{
					"input":57,
					"interpolation":"LINEAR",
					"output":77
				},
				{
					"input":59,
					"interpolation":"LINEAR",
					"output":78
				},
				{
					"input":57,
					"interpolation":"STEP",
					"output":79
				},
				{
					"input":57,
					"interpolation":"LINEAR",
					"output":80
				},
				{
					"input":59,
					"interpolation":"LINEAR",
					"output":81
				},
				{
					"input":57,
					"interpolation":"STEP",
					"output":82
				},
				{
					"input":57,
					"interpolation":"LINEAR",
					"output":83
				},
				{
					"input":59,
					"interpolation":"LINEAR",
					"output":84
				},
				{
					"input":57,
					"interpolation":"LINEAR",
					"output":85
				},
				{
					"input":57,
					"interpolation":"LINEAR",
					"output":86
				},
				{
					"input":59,
					"interpolation":"LINEAR",
					"output":87
				},
				{
					"input":57,
					"interpolation":"LINEAR",
					"output":88
				},
				{
					"input":57,
					"interpolation":"LINEAR",
					"output":89
				},
				{
					"input":59,
					"interpolation":"LINEAR",
					"output":90
				},
				{
					"input":57,
					"interpolation":"LINEAR",
					"output":91
				},
				{
					"input":57,
					"interpolation":"LINEAR",
					"output":92
				},
				{
					"input":59,
					"interpolation":"LINEAR",
					"output":93
				},
				{
					"input":57,
					"interpolation":"STEP",
					"output":94
				},
				{
					"input":57,
					"interpolation":"STEP",
					"output":95
				},
				{
					"input":57,
					"interpolation":"STEP",
					"output":96
				},
				{
					"input":57,
					"interpolation":"STEP",
					"output":97
				},
				{
					"input":57,
					"interpolation":"STEP",
					"output":98
				},
				{
					"input":57,
					"interpolation":"STEP",
					"output":99
				},
				{
					"input":57,
					"interpolation":"STEP",
					"output":100
				},
				{
					"input":57,
					"interpolation":"STEP",
					"output":101
				},
				{
					"input":59,
					"interpolation":"LINEAR",
					"output":102
				},
				{
					"input":57,
					"interpolation":"STEP",
					"output":103
				},
				{
					"input":57,
					"interpolation":"LINEAR",
					"output":104
				},
				{
					"input":57,
					"interpolation":"LINEAR",
					"output":105
				},
				{
					"input":57,
					"interpolation":"LINEAR",
					"output":106
				}
			]
		},
		{
			"channels":[
				{
					"sampler":0,
					"target":{
						"node":2,
						"path":"translation"
					}
				},
				{
					"sampler":1,
					"target":{
						"node":2,
						"path":"rotation"
					}
				},
				{
					"sampler":2,
					"target":{
						"node":2,
						"path":"scale"
					}
				},
				{
					"sampler":3,
					"target":{
						"node":1,
						"path":"translation"
					}
				},
				{
					"sampler":4,
					"target":{
						"node":1,
						"path":"rotation"
					}
				},
				{
					"sampler":5,
					"target":{
						"node":1,
						"path":"scale"
					}
				},
				{
					"sampler":6,
					"target":{
						"node":0,
						"path":"translation"
					}
				},
				{
					"sampler":7,
					"target":{
						"node":0,
						"path":"rotation"
					}
				},
				{
					"sampler":8,
					"target":{
						"node":0,
						"path":"scale"
					}
				},
				{
					"sampler":9,
					"target":{
						"node":5,
						"path":"translation"
					}
				},
				{
					"sampler":10,
					"target":{
						"node":5,
						"path":"rotation"
					}
				},
				{
					"sampler":11,
					"target":{
						"node":5,
						"path":"scale"
					}
				},
				{
					"sampler":12,
					"target":{
						"node":4,
						"path":"translation"
					}
				},
				{
					"sampler":13,
					"target":{
						"node":4,
						"path":"rotation"
					}
				},
				{
					"sampler":14,
					"target":{
						"node":4,
						"path":"scale"
					}
				},
				{
					"sampler":15,
					"target":{
						"node":3,
						"path":"translation"
					}
				},
				{
					"sampler":16,
					"target":{
						"node":3,
						"path":"rotation"
					}
				},
				{
					"sampler":17,
					"target":{
						"node":3,
						"path":"scale"
					}
				},
				{
					"sampler":18,
					"target":{
						"node":8,
						"path":"translation"
					}
				},
				{
					"sampler":19,
					"target":{
						"node":8,
						"path":"rotation"
					}
				},
				{
					"sampler":20,
					"target":{
						"node":8,
						"path":"scale"
					}
				},
				{
					"sampler":21,
					"target":{
						"node":7,
						"path":"translation"
					}
				},
				{
					"sampler":22,
					"target":{
						"node":7,
						"path":"rotation"
					}
				},
				{
					"sampler":23,
					"target":{
						"node":7,
						"path":"scale"
					}
				},
				{
					"sampler":24,
					"target":{
						"node":6,
						"path":"translation"
					}
				},
				{
					"sampler":25,
					"target":{
						"node":6,
						"path":"rotation"
					}
				},
				{
					"sampler":26,
					"target":{
						"node":6,
						"path":"scale"
					}
				},
				{
					"sampler":27,
					"target":{
						"node":11,
						"path":"translation"
					}
				},
				{
					"sampler":28,
					"target":{
						"node":11,
						"path":"rotation"
					}
				},
				{
					"sampler":29,
					"target":{
						"node":11,
						"path":"scale"
					}
				},
				{
					"sampler":30,
					"target":{
						"node":10,
						"path":"translation"
					}
				},
				{
					"sampler":31,
					"target":{
						"node":10,
						"path":"rotation"
					}
				},
				{
					"sampler":32,
					"target":{
						"node":10,
						"path":"scale"
					}
				},
				{
					"sampler":33,
					"target":{
						"node":9,
						"path":"translation"
					}
				},
				{
					"sampler":34,
					"target":{
						"node":9,
						"path":"rotation"
					}
				},
				{
					"sampler":35,
					"target":{
						"node":9,
						"path":"scale"
					}
				},
				{
					"sampler":36,
					"target":{
						"node":12,
						"path":"translation"
					}
				},
				{
					"sampler":37,
					"target":{
						"node":12,
						"path":"rotation"
					}
				},
				{
					"sampler":38,
					"target":{
						"node":12,
						"path":"scale"
					}
				},
				{
					"sampler":39,
					"target":{
						"node":15,
						"path":"translation"
					}
				},
				{
					"sampler":40,
					"target":{
						"node":15,
						"path":"rotation"
					}
				},
				{
					"sampler":41,
					"target":{
						"node":15,
						"path":"scale"
					}
				},
				{
					"sampler":42,
					"target":{
						"node":14,
						"path":"translation"
					}
				},
				{
					"sampler":43,
					"target":{
						"node":14,
						"path":"rotation"
					}
				},
				{
					"sampler":44,
					"target":{
						"node":14,
						"path":"scale"
					}
				},
				{
					"sampler":45,
					"target":{
						"node":13,
						"path":"translation"
					}
				},
				{
					"sampler":46,
					"target":{
						"node":13,
						"path":"rotation"
					}
				},
				{
					"sampler":47,
					"target":{
						"node":13,
						"path":"scale"
					}
				}
			],
			"name":"call_start",
			"samplers":[
				{
					"input":57,
					"interpolation":"STEP",
					"output":107
				},
				{
					"input":59,
					"interpolation":"LINEAR",
					"output":108
				},
				{
					"input":57,
					"interpolation":"STEP",
					"output":109
				},
				{
					"input":57,
					"interpolation":"LINEAR",
					"output":110
				},
				{
					"input":57,
					"interpolation":"LINEAR",
					"output":111
				},
				{
					"input":57,
					"interpolation":"LINEAR",
					"output":112
				},
				{
					"input":57,
					"interpolation":"LINEAR",
					"output":113
				},
				{
					"input":57,
					"interpolation":"LINEAR",
					"output":114
				},
				{
					"input":57,
					"interpolation":"STEP",
					"output":115
				},
				{
					"input":57,
					"interpolation":"LINEAR",
					"output":116
				},
				{
					"input":59,
					"interpolation":"LINEAR",
					"output":117
				},
				{
					"input":57,
					"interpolation":"STEP",
					"output":118
				},
				{
					"input":57,
					"interpolation":"LINEAR",
					"output":119
				},
				{
					"input":59,
					"interpolation":"LINEAR",
					"output":120
				},
				{
					"input":57,
					"interpolation":"STEP",
					"output":121
				},
				{
					"input":57,
					"interpolation":"LINEAR",
					"output":122
				},
				{
					"input":59,
					"interpolation":"LINEAR",
					"output":123
				},
				{
					"input":57,
					"interpolation":"STEP",
					"output":124
				},
				{
					"input":57,
					"interpolation":"LINEAR",
					"output":125
				},
				{
					"input":59,
					"interpolation":"LINEAR",
					"output":126
				},
				{
					"input":57,
					"interpolation":"STEP",
					"output":127
				},
				{
					"input":57,
					"interpolation":"LINEAR",
					"output":128
				},
				{
					"input":59,
					"interpolation":"LINEAR",
					"output":129
				},
				{
					"input":57,
					"interpolation":"STEP",
					"output":130
				},
				{
					"input":57,
					"interpolation":"LINEAR",
					"output":131
				},
				{
					"input":59,
					"interpolation":"LINEAR",
					"output":132
				},
				{
					"input":57,
					"interpolation":"LINEAR",
					"output":133
				},
				{
					"input":57,
					"interpolation":"LINEAR",
					"output":134
				},
				{
					"input":59,
					"interpolation":"LINEAR",
					"output":135
				},
				{
					"input":57,
					"interpolation":"LINEAR",
					"output":136
				},
				{
					"input":57,
					"interpolation":"LINEAR",
					"output":137
				},
				{
					"input":59,
					"interpolation":"LINEAR",
					"output":138
				},
				{
					"input":57,
					"interpolation":"LINEAR",
					"output":139
				},
				{
					"input":57,
					"interpolation":"LINEAR",
					"output":140
				},
				{
					"input":59,
					"interpolation":"LINEAR",
					"output":141
				},
				{
					"input":57,
					"interpolation":"STEP",
					"output":142
				},
				{
					"input":57,
					"interpolation":"STEP",
					"output":143
				},
				{
					"input":57,
					"interpolation":"STEP",
					"output":144
				},
				{
					"input":57,
					"interpolation":"STEP",
					"output":145
				},
				{
					"input":57,
					"interpolation":"STEP",
					"output":146
				},
				{
					"input":57,
					"interpolation":"STEP",
					"output":147
				},
				{
					"input":57,
					"interpolation":"STEP",
					"output":148
				},
				{
					"input":57,
					"interpolation":"STEP",
					"output":149
				},
				{
					"input":59,
					"interpolation":"LINEAR",
					"output":150
				},
				{
					"input":57,
					"interpolation":"STEP",
					"output":151
				},
				{
					"input":57,
					"interpolation":"LINEAR",
					"output":152
				},
				{
					"input":57,
					"interpolation":"LINEAR",
					"output":153
				},
				{
					"input":57,
					"interpolation":"LINEAR",
					"output":154
				}
			]
		},
		{
			"channels":[
				{
					"sampler":0,
					"target":{
						"node":2,
						"path":"translation"
					}
				},
				{
					"sampler":1,
					"target":{
						"node":2,
						"path":"rotation"
					}
				},
				{
					"sampler":2,
					"target":{
						"node":2,
						"path":"scale"
					}
				},
				{
					"sampler":3,
					"target":{
						"node":1,
						"path":"translation"
					}
				},
				{
					"sampler":4,
					"target":{
						"node":1,
						"path":"rotation"
					}
				},
				{
					"sampler":5,
					"target":{
						"node":1,
						"path":"scale"
					}
				},
				{
					"sampler":6,
					"target":{
						"node":0,
						"path":"translation"
					}
				},
				{
					"sampler":7,
					"target":{
						"node":0,
						"path":"rotation"
					}
				},
				{
					"sampler":8,
					"target":{
						"node":0,
						"path":"scale"
					}
				},
				{
					"sampler":9,
					"target":{
						"node":5,
						"path":"translation"
					}
				},
				{
					"sampler":10,
					"target":{
						"node":5,
						"path":"rotation"
					}
				},
				{
					"sampler":11,
					"target":{
						"node":5,
						"path":"scale"
					}
				},
				{
					"sampler":12,
					"target":{
						"node":4,
						"path":"translation"
					}
				},
				{
					"sampler":13,
					"target":{
						"node":4,
						"path":"rotation"
					}
				},
				{
					"sampler":14,
					"target":{
						"node":4,
						"path":"scale"
					}
				},
				{
					"sampler":15,
					"target":{
						"node":3,
						"path":"translation"
					}
				},
				{
					"sampler":16,
					"target":{
						"node":3,
						"path":"rotation"
					}
				},
				{
					"sampler":17,
					"target":{
						"node":3,
						"path":"scale"
					}
				},
				{
					"sampler":18,
					"target":{
						"node":8,
						"path":"translation"
					}
				},
				{
					"sampler":19,
					"target":{
						"node":8,
						"path":"rotation"
					}
				},
				{
					"sampler":20,
					"target":{
						"node":8,
						"path":"scale"
					}
				},
				{
					"sampler":21,
					"target":{
						"node":7,
						"path":"translation"
					}
				},
				{
					"sampler":22,
					"target":{
						"node":7,
						"path":"rotation"
					}
				},
				{
					"sampler":23,
					"target":{
						"node":7,
						"path":"scale"
					}
				},
				{
					"sampler":24,
					"target":{
						"node":6,
						"path":"translation"
					}
				},
				{
					"sampler":25,
					"target":{
						"node":6,
						"path":"rotation"
					}
				},
				{
					"sampler":26,
					"target":{
						"node":6,
						"path":"scale"
					}
				},
				{
					"sampler":27,
					"target":{
						"node":11,
						"path":"translation"
					}
				},
				{
					"sampler":28,
					"target":{
						"node":11,
						"path":"rotation"
					}
				},
				{
					"sampler":29,
					"target":{
						"node":11,
						"path":"scale"
					}
				},
				{
					"sampler":30,
					"target":{
						"node":10,
						"path":"translation"
					}
				},
				{
					"sampler":31,
					"target":{
						"node":10,
						"path":"rotation"
					}
				},
				{
					"sampler":32,
					"target":{
						"node":10,
						"path":"scale"
					}
				},
				{
					"sampler":33,
					"target":{
						"node":9,
						"path":"translation"
					}
				},
				{
					"sampler":34,
					"target":{
						"node":9,
						"path":"rotation"
					}
				},
				{
					"sampler":35,
					"target":{
						"node":9,
						"path":"scale"
					}
				},
				{
					"sampler":36,
					"target":{
						"node":12,
						"path":"translation"
					}
				},
				{
					"sampler":37,
					"target":{
						"node":12,
						"path":"rotation"
					}
				},
				{
					"sampler":38,
					"target":{
						"node":12,
						"path":"scale"
					}
				},
				{
					"sampler":39,
					"target":{
						"node":15,
						"path":"translation"
					}
				},
				{
					"sampler":40,
					"target":{
						"node":15,
						"path":"rotation"
					}
				},
				{
					"sampler":41,
					"target":{
						"node":15,
						"path":"scale"
					}
				},
				{
					"sampler":42,
					"target":{
						"node":14,
						"path":"translation"
					}
				},
				{
					"sampler":43,
					"target":{
						"node":14,
						"path":"rotation"
					}
				},
				{
					"sampler":44,
					"target":{
						"node":14,
						"path":"scale"
					}
				},
				{
					"sampler":45,
					"target":{
						"node":13,
						"path":"translation"
					}
				},
				{
					"sampler":46,
					"target":{
						"node":13,
						"path":"rotation"
					}
				},
				{
					"sampler":47,
					"target":{
						"node":13,
						"path":"scale"
					}
				}
			],
			"name":"move",
			"samplers":[
				{
					"input":155,
					"interpolation":"LINEAR",
					"output":156
				},
				{
					"input":157,
					"interpolation":"STEP",
					"output":158
				},
				{
					"input":157,
					"interpolation":"STEP",
					"output":159
				},
				{
					"input":157,
					"interpolation":"STEP",
					"output":160
				},
				{
					"input":155,
					"interpolation":"LINEAR",
					"output":161
				},
				{
					"input":157,
					"interpolation":"STEP",
					"output":162
				},
				{
					"input":157,
					"interpolation":"STEP",
					"output":163
				},
				{
					"input":157,
					"interpolation":"STEP",
					"output":164
				},
				{
					"input":157,
					"interpolation":"STEP",
					"output":165
				},
				{
					"input":155,
					"interpolation":"LINEAR",
					"output":166
				},
				{
					"input":157,
					"interpolation":"STEP",
					"output":167
				},
				{
					"input":157,
					"interpolation":"STEP",
					"output":168
				},
				{
					"input":157,
					"interpolation":"STEP",
					"output":169
				},
				{
					"input":155,
					"interpolation":"LINEAR",
					"output":170
				},
				{
					"input":157,
					"interpolation":"STEP",
					"output":171
				},
				{
					"input":157,
					"interpolation":"STEP",
					"output":172
				},
				{
					"input":157,
					"interpolation":"STEP",
					"output":173
				},
				{
					"input":157,
					"interpolation":"STEP",
					"output":174
				},
				{
					"input":155,
					"interpolation":"LINEAR",
					"output":175
				},
				{
					"input":157,
					"interpolation":"STEP",
					"output":176
				},
				{
					"input":157,
					"interpolation":"STEP",
					"output":177
				},
				{
					"input":157,
					"interpolation":"STEP",
					"output":178
				},
				{
					"input":155,
					"interpolation":"LINEAR",
					"output":179
				},
				{
					"input":157,
					"interpolation":"STEP",
					"output":180
				},
				{
					"input":157,
					"interpolation":"STEP",
					"output":181
				},
				{
					"input":157,
					"interpolation":"STEP",
					"output":182
				},
				{
					"input":157,
					"interpolation":"STEP",
					"output":183
				},
				{
					"input":155,
					"interpolation":"LINEAR",
					"output":184
				},
				{
					"input":157,
					"interpolation":"STEP",
					"output":185
				},
				{
					"input":157,
					"interpolation":"STEP",
					"output":186
				},
				{
					"input":157,
					"interpolation":"STEP",
					"output":187
				},
				{
					"input":155,
					"interpolation":"LINEAR",
					"output":188
				},
				{
					"input":157,
					"interpolation":"STEP",
					"output":189
				},
				{
					"input":157,
					"interpolation":"STEP",
					"output":190
				},
				{
					"input":157,
					"interpolation":"STEP",
					"output":191
				},
				{
					"input":157,
					"interpolation":"STEP",
					"output":192
				},
				{
					"input":155,
					"interpolation":"LINEAR",
					"output":193
				},
				{
					"input":157,
					"interpolation":"STEP",
					"output":194
				},
				{
					"input":157,
					"interpolation":"STEP",
					"output":195
				},
				{
					"input":155,
					"interpolation":"LINEAR",
					"output":196
				},
				{
					"input":157,
					"interpolation":"STEP",
					"output":197
				},
				{
					"input":157,
					"interpolation":"STEP",
					"output":198
				},
				{
					"input":157,
					"interpolation":"STEP",
					"output":199
				},
				{
					"input":155,
					"interpolation":"LINEAR",
					"output":200
				},
				{
					"input":157,
					"interpolation":"STEP",
					"output":201
				},
				{
					"input":157,
					"interpolation":"STEP",
					"output":202
				},
				{
					"input":157,
					"interpolation":"STEP",
					"output":203
				},
				{
					"input":157,
					"interpolation":"STEP",
					"output":204
				}
			]
		}
	],
	"materials":[
		{
			"doubleSided":true,
			"name":"\u30de\u30c6\u30ea\u30a2\u30eb",
			"pbrMetallicRoughness":{
				"baseColorTexture":{
					"index":0
				},
				"metallicFactor":0,
				"roughnessFactor":0.5
			}
		}
	],
	"meshes":[
		{
			"name":"\u7acb\u65b9\u4f53.001",
			"primitives":[
				{
					"attributes":{
						"POSITION":0,
						"NORMAL":1,
						"TEXCOORD_0":2,
						"JOINTS_0":3,
						"WEIGHTS_0":4
					},
					"indices":5,
					"material":0
				}
			]
		}
	],
	"textures":[
		{
			"sampler":0,
			"source":0
		}
	],
	"images":[
		{
			"mimeType":"image/png",
			"name":"hand",
			"uri":"hand.png"
		}
	],
	"skins":[
		{
			"inverseBindMatrices":6,
			"joints":[
				2,
				1,
				0,
				5,
				4,
				3,
				8,
				7,
				6,
				11,
				10,
				9,
				12,
				15,
				14,
				13
			],
			"name":"\u30a2\u30fc\u30de\u30c1\u30e5\u30a2"
		}
	],
	"accessors":[
		{
			"bufferView":0,
			"componentType":5126,
			"count":740,
			"max":[
				1.8635185956954956,
				0.5052991509437561,
				2.079961061477661
			],
			"min":[
				-1.3750042915344238,
				-0.5383477210998535,
				-1.9014378786087036
			],
			"type":"VEC3"
		},
		{
			"bufferView":1,
			"componentType":5126,
			"count":740,
			"type":"VEC3"
		},
		{
			"bufferView":2,
			"componentType":5126,
			"count":740,
			"type":"VEC2"
		},
		{
			"bufferView":3,
			"componentType":5121,
			"count":740,
			"type":"VEC4"
		},
		{
			"bufferView":4,
			"componentType":5126,
			"count":740,
			"type":"VEC4"
		},
		{
			"bufferView":5,
			"componentType":5123,
			"count":1116,
			"type":"SCALAR"
		},
		{
			"bufferView":6,
			"componentType":5126,
			"count":16,
			"type":"MAT4"
		},
		{
			"bufferView":7,
			"componentType":5126,
			"count":32,
			"max":[
				0.5166666666666667
			],
			"min":[
				0
			],
			"type":"SCALAR"
		},
		{
			"bufferView":8,
			"componentType":5126,
			"count":32,
			"type":"VEC3"
		},
		{
			"bufferView":9,
			"componentType":5126,
			"count":32,
			"type":"VEC4"
		},
		{
			"bufferView":10,
			"componentType":5126,
			"count":2,
			"max":[
				0.5166666666666667
			],
			"min":[
				0
			],
			"type":"SCALAR"
		},
		{
			"bufferView":11,
			"componentType":5126,
			"count":2,
			"type":"VEC3"
		},
		{
			"bufferView":12,
			"componentType":5126,
			"count":2,
			"type":"VEC3"
		},
		{
			"bufferView":13,
			"componentType":5126,
			"count":32,
			"type":"VEC4"
		},
		{
			"bufferView":14,
			"componentType":5126,
			"count":2,
			"type":"VEC3"
		},
		{
			"bufferView":15,
			"componentType":5126,
			"count":2,
			"type":"VEC3"
		},
		{
			"bufferView":16,
			"componentType":5126,
			"count":32,
			"type":"VEC4"
		},
		{
			"bufferView":17,
			"componentType":5126,
			"count":2,
			"type":"VEC3"
		},
		{
			"bufferView":18,
			"componentType":5126,
			"count":32,
			"type":"VEC3"
		},
		{
			"bufferView":19,
			"componentType":5126,
			"count":32,
			"type":"VEC4"
		},
		{
			"bufferView":20,
			"componentType":5126,
			"count":2,
			"type":"VEC3"
		},
		{
			"bufferView":21,
			"componentType":5126,
			"count":2,
			"type":"VEC3"
		},
		{
			"bufferView":22,
			"componentType":5126,
			"count":2,
			"type":"VEC4"
		},
		{
			"bufferView":23,
			"componentType":5126,
			"count":2,
			"type":"VEC3"
		},
		{
			"bufferView":24,
			"componentType":5126,
			"count":2,
			"type":"VEC3"
		},
		{
			"bufferView":25,
			"componentType":5126,
			"count":2,
			"type":"VEC4"
		},
		{
			"bufferView":26,
			"componentType":5126,
			"count":2,
			"type":"VEC3"
		},
		{
			"bufferView":27,
			"componentType":5126,
			"count":32,
			"type":"VEC3"
		},
		{
			"bufferView":28,
			"componentType":5126,
			"count":32,
			"type":"VEC4"
		},
		{
			"bufferView":29,
			"componentType":5126,
			"count":2,
			"type":"VEC3"
		},
		{
			"bufferView":30,
			"componentType":5126,
			"count":2,
			"type":"VEC3"
		},
		{
			"bufferView":31,
			"componentType":5126,
			"count":2,
			"type":"VEC4"
		},
		{
			"bufferView":32,
			"componentType":5126,
			"count":2,
			"type":"VEC3"
		},
		{
			"bufferView":33,
			"componentType":5126,
			"count":2,
			"type":"VEC3"
		},
		{
			"bufferView":34,
			"componentType":5126,
			"count":2,
			"type":"VEC4"
		},
		{
			"bufferView":35,
			"componentType":5126,
			"count":2,
			"type":"VEC3"
		},
		{
			"bufferView":36,
			"componentType":5126,
			"count":32,
			"type":"VEC3"
		},
		{
			"bufferView":37,
			"componentType":5126,
			"count":32,
			"type":"VEC4"
		},
		{
			"bufferView":38,
			"componentType":5126,
			"count":2,
			"type":"VEC3"
		},
		{
			"bufferView":39,
			"componentType":5126,
			"count":2,
			"type":"VEC3"
		},
		{
			"bufferView":40,
			"componentType":5126,
			"count":2,
			"type":"VEC4"
		},
		{
			"bufferView":41,
			"componentType":5126,
			"count":2,
			"type":"VEC3"
		},
		{
			"bufferView":42,
			"componentType":5126,
			"count":2,
			"type":"VEC3"
		},
		{
			"bufferView":43,
			"componentType":5126,
			"count":2,
			"type":"VEC4"
		},
		{
			"bufferView":44,
			"componentType":5126,
			"count":2,
			"type":"VEC3"
		},
		{
			"bufferView":45,
			"componentType":5126,
			"count":32,
			"type":"VEC3"
		},
		{
			"bufferView":46,
			"componentType":5126,
			"count":32,
			"type":"VEC4"
		},
		{
			"bufferView":47,
			"componentType":5126,
			"count":2,
			"type":"VEC3"
		},
		{
			"bufferView":48,
			"componentType":5126,
			"count":32,
			"type":"VEC3"
		},
		{
			"bufferView":49,
			"componentType":5126,
			"count":32,
			"type":"VEC4"
		},
		{
			"bufferView":50,
			"componentType":5126,
			"count":2,
			"type":"VEC3"
		},
		{
			"bufferView":51,
			"componentType":5126,
			"count":2,
			"type":"VEC3"
		},
		{
			"bufferView":52,
			"componentType":5126,
			"count":32,
			"type":"VEC4"
		},
		{
			"bufferView":53,
			"componentType":5126,
			"count":2,
			"type":"VEC3"
		},
		{
			"bufferView":54,
			"componentType":5126,
			"count":2,
			"type":"VEC3"
		},
		{
			"bufferView":55,
			"componentType":5126,
			"count":32,
			"type":"VEC4"
		},
		{
			"bufferView":56,
			"componentType":5126,
			"count":2,
			"type":"VEC3"
		},
		{
			"bufferView":57,
			"componentType":5126,
			"count":2,
			"max":[
				0.16666666666666666
			],
			"min":[
				0
			],
			"type":"SCALAR"
		},
		{
			"bufferView":58,
			"componentType":5126,
			"count":2,
			"type":"VEC3"
		},
		{
			"bufferView":59,
			"componentType":5126,
			"count":11,
			"max":[
				0.16666666666666666
			],
			"min":[
				0
			],
			"type":"SCALAR"
		},
		{
			"bufferView":60,
			"componentType":5126,
			"count":11,
			"type":"VEC4"
		},
		{
			"bufferView":61,
			"componentType":5126,
			"count":2,
			"type":"VEC3"
		},
		{
			"bufferView":62,
			"componentType":5126,
			"count":2,
			"type":"VEC3"
		},
		{
			"bufferView":63,
			"componentType":5126,
			"count":2,
			"type":"VEC4"
		},
		{
			"bufferView":64,
			"componentType":5126,
			"count":2,
			"type":"VEC3"
		},
		{
			"bufferView":65,
			"componentType":5126,
			"count":2,
			"type":"VEC3"
		},
		{
			"bufferView":66,
			"componentType":5126,
			"count":2,
			"type":"VEC4"
		},
		{
			"bufferView":67,
			"componentType":5126,
			"count":2,
			"type":"VEC3"
		},
		{
			"bufferView":68,
			"componentType":5126,
			"count":2,
			"type":"VEC3"
		},
		{
			"bufferView":69,
			"componentType":5126,
			"count":11,
			"type":"VEC4"
		},
		{
			"bufferView":70,
			"componentType":5126,
			"count":2,
			"type":"VEC3"
		},
		{
			"bufferView":71,
			"componentType":5126,
			"count":2,
			"type":"VEC3"
		},
		{
			"bufferView":72,
			"componentType":5126,
			"count":11,
			"type":"VEC4"
		},
		{
			"bufferView":73,
			"componentType":5126,
			"count":2,
			"type":"VEC3"
		},
		{
			"bufferView":74,
			"componentType":5126,
			"count":2,
			"type":"VEC3"
		},
		{
			"bufferView":75,
			"componentType":5126,
			"count":11,
			"type":"VEC4"
		},
		{
			"bufferView":76,
			"componentType":5126,
			"count":2,
			"type":"VEC3"
		},
		{
			"bufferView":77,
			"componentType":5126,
			"count":2,
			"type":"VEC3"
		},
		{
			"bufferView":78,
			"componentType":5126,
			"count":11,
			"type":"VEC4"
		},
		{
			"bufferView":79,
			"componentType":5126,
			"count":2,
			"type":"VEC3"
		},
		{
			"bufferView":80,
			"componentType":5126,
			"count":2,
			"type":"VEC3"
		},
		{
			"bufferView":81,
			"componentType":5126,
			"count":11,
			"type":"VEC4"
		},
		{
			"bufferView":82,
			"componentType":5126,
			"count":2,
			"type":"VEC3"
		},
		{
			"bufferView":83,
			"componentType":5126,
			"count":2,
			"type":"VEC3"
		},
		{
			"bufferView":84,
			"componentType":5126,
			"count":11,
			"type":"VEC4"
		},
		{
			"bufferView":85,
			"componentType":5126,
			"count":2,
			"type":"VEC3"
		},
		{
			"bufferView":86,
			"componentType":5126,
			"count":2,
			"type":"VEC3"
		},
		{
			"bufferView":87,
			"componentType":5126,
			"count":11,
			"type":"VEC4"
		},
		{
			"bufferView":88,
			"componentType":5126,
			"count":2,
			"type":"VEC3"
		},
		{
			"bufferView":89,
			"componentType":5126,
			"count":2,
			"type":"VEC3"
		},
		{
			"bufferView":90,
			"componentType":5126,
			"count":11,
			"type":"VEC4"
		},
		{
			"bufferView":91,
			"componentType":5126,
			"count":2,
			"type":"VEC3"
		},
		{
			"bufferView":92,
			"componentType":5126,
			"count":2,
			"type":"VEC3"
		},
		{
			"bufferView":93,
			"componentType":5126,
			"count":11,
			"type":"VEC4"
		},
		{
			"bufferView":94,
			"componentType":5126,
			"count":2,
			"type":"VEC3"
		},
		{
			"bufferView":95,
			"componentType":5126,
			"count":2,
			"type":"VEC3"
		},
		{
			"bufferView":96,
			"componentType":5126,
			"count":2,
			"type":"VEC4"
		},
		{
			"bufferView":97,
			"componentType":5126,
			"count":2,
			"type":"VEC3"
		},
		{
			"bufferView":98,
			"componentType":5126,
			"count":2,
			"type":"VEC3"
		},
		{
			"bufferView":99,
			"componentType":5126,
			"count":2,
			"type":"VEC4"
		},
		{
			"bufferView":100,
			"componentType":5126,
			"count":2,
			"type":"VEC3"
		},
		{
			"bufferView":101,
			"componentType":5126,
			"count":2,
			"type":"VEC3"
		},
		{
			"bufferView":102,
			"componentType":5126,
			"count":11,
			"type":"VEC4"
		},
		{
			"bufferView":103,
			"componentType":5126,
			"count":2,
			"type":"VEC3"
		},
		{
			"bufferView":104,
			"componentType":5126,
			"count":2,
			"type":"VEC3"
		},
		{
			"bufferView":105,
			"componentType":5126,
			"count":2,
			"type":"VEC4"
		},
		{
			"bufferView":106,
			"componentType":5126,
			"count":2,
			"type":"VEC3"
		},
		{
			"bufferView":107,
			"componentType":5126,
			"count":2,
			"type":"VEC3"
		},
		{
			"bufferView":108,
			"componentType":5126,
			"count":11,
			"type":"VEC4"
		},
		{
			"bufferView":109,
			"componentType":5126,
			"count":2,
			"type":"VEC3"
		},
		{
			"bufferView":110,
			"componentType":5126,
			"count":2,
			"type":"VEC3"
		},
		{
			"bufferView":111,
			"componentType":5126,
			"count":2,
			"type":"VEC4"
		},
		{
			"bufferView":112,
			"componentType":5126,
			"count":2,
			"type":"VEC3"
		},
		{
			"bufferView":113,
			"componentType":5126,
			"count":2,
			"type":"VEC3"
		},
		{
			"bufferView":114,
			"componentType":5126,
			"count":2,
			"type":"VEC4"
		},
		{
			"bufferView":115,
			"componentType":5126,
			"count":2,
			"type":"VEC3"
		},
		{
			"bufferView":116,
			"componentType":5126,
			"count":2,
			"type":"VEC3"
		},
		{
			"bufferView":117,
			"componentType":5126,
			"count":11,
			"type":"VEC4"
		},
		{
			"bufferView":118,
			"componentType":5126,
			"count":2,
			"type":"VEC3"
		},
		{
			"bufferView":119,
			"componentType":5126,
			"count":2,
			"type":"VEC3"
		},
		{
			"bufferView":120,
			"componentType":5126,
			"count":11,
			"type":"VEC4"
		},
		{
			"bufferView":121,
			"componentType":5126,
			"count":2,
			"type":"VEC3"
		},
		{
			"bufferView":122,
			"componentType":5126,
			"count":2,
			"type":"VEC3"
		},
		{
			"bufferView":123,
			"componentType":5126,
			"count":11,
			"type":"VEC4"
		},
		{
			"bufferView":124,
			"componentType":5126,
			"count":2,
			"type":"VEC3"
		},
		{
			"bufferView":125,
			"componentType":5126,
			"count":2,
			"type":"VEC3"
		},
		{
			"bufferView":126,
			"componentType":5126,
			"count":11,
			"type":"VEC4"
		},
		{
			"bufferView":127,
			"componentType":5126,
			"count":2,
			"type":"VEC3"
		},
		{
			"bufferView":128,
			"componentType":5126,
			"count":2,
			"type":"VEC3"
		},
		{
			"bufferView":129,
			"componentType":5126,
			"count":11,
			"type":"VEC4"
		},
		{
			"bufferView":130,
			"componentType":5126,
			"count":2,
			"type":"VEC3"
		},
		{
			"bufferView":131,
			"componentType":5126,
			"count":2,
			"type":"VEC3"
		},
		{
			"bufferView":132,
			"componentType":5126,
			"count":11,
			"type":"VEC4"
		},
		{
			"bufferView":133,
			"componentType":5126,
			"count":2,
			"type":"VEC3"
		},
		{
			"bufferView":134,
			"componentType":5126,
			"count":2,
			"type":"VEC3"
		},
		{
			"bufferView":135,
			"componentType":5126,
			"count":11,
			"type":"VEC4"
		},
		{
			"bufferView":136,
			"componentType":5126,
			"count":2,
			"type":"VEC3"
		},
		{
			"bufferView":137,
			"componentType":5126,
			"count":2,
			"type":"VEC3"
		},
		{
			"bufferView":138,
			"componentType":5126,
			"count":11,
			"type":"VEC4"
		},
		{
			"bufferView":139,
			"componentType":5126,
			"count":2,
			"type":"VEC3"
		},
		{
			"bufferView":140,
			"componentType":5126,
			"count":2,
			"type":"VEC3"
		},
		{
			"bufferView":141,
			"componentType":5126,
			"count":11,
			"type":"VEC4"
		},
		{
			"bufferView":142,
			"componentType":5126,
			"count":2,
			"type":"VEC3"
		},
		{
			"bufferView":143,
			"componentType":5126,
			"count":2,
			"type":"VEC3"
		},
		{
			"bufferView":144,
			"componentType":5126,
			"count":2,
			"type":"VEC4"
		},
		{
			"bufferView":145,
			"componentType":5126,
			"count":2,
			"type":"VEC3"
		},
		{
			"bufferView":146,
			"componentType":5126,
			"count":2,
			"type":"VEC3"
		},
		{
			"bufferView":147,
			"componentType":5126,
			"count":2,
			"type":"VEC4"
		},
		{
			"bufferView":148,
			"componentType":5126,
			"count":2,
			"type":"VEC3"
		},
		{
			"bufferView":149,
			"componentType":5126,
			"count":2,
			"type":"VEC3"
		},
		{
			"bufferView":150,
			"componentType":5126,
			"count":11,
			"type":"VEC4"
		},
		{
			"bufferView":151,
			"componentType":5126,
			"count":2,
			"type":"VEC3"
		},
		{
			"bufferView":152,
			"componentType":5126,
			"count":2,
			"type":"VEC3"
		},
		{
			"bufferView":153,
			"componentType":5126,
			"count":2,
			"type":"VEC4"
		},
		{
			"bufferView":154,
			"componentType":5126,
			"count":2,
			"type":"VEC3"
		},
		{
			"bufferView":155,
			"componentType":5126,
			"count":41,
			"max":[
				0.6666666666666666
			],
			"min":[
				0
			],
			"type":"SCALAR"
		},
		{
			"bufferView":156,
			"componentType":5126,
			"count":41,
			"type":"VEC3"
		},
		{
			"bufferView":157,
			"componentType":5126,
			"count":2,
			"max":[
				0.6666666666666666
			],
			"min":[
				0
			],
			"type":"SCALAR"
		},
		{
			"bufferView":158,
			"componentType":5126,
			"count":2,
			"type":"VEC4"
		},
		{
			"bufferView":159,
			"componentType":5126,
			"count":2,
			"type":"VEC3"
		},
		{
			"bufferView":160,
			"componentType":5126,
			"count":2,
			"type":"VEC3"
		},
		{
			"bufferView":161,
			"componentType":5126,
			"count":41,
			"type":"VEC4"
		},
		{
			"bufferView":162,
			"componentType":5126,
			"count":2,
			"type":"VEC3"
		},
		{
			"bufferView":163,
			"componentType":5126,
			"count":2,
			"type":"VEC3"
		},
		{
			"bufferView":164,
			"componentType":5126,
			"count":2,
			"type":"VEC4"
		},
		{
			"bufferView":165,
			"componentType":5126,
			"count":2,
			"type":"VEC3"
		},
		{
			"bufferView":166,
			"componentType":5126,
			"count":41,
			"type":"VEC3"
		},
		{
			"bufferView":167,
			"componentType":5126,
			"count":2,
			"type":"VEC4"
		},
		{
			"bufferView":168,
			"componentType":5126,
			"count":2,
			"type":"VEC3"
		},
		{
			"bufferView":169,
			"componentType":5126,
			"count":2,
			"type":"VEC3"
		},
		{
			"bufferView":170,
			"componentType":5126,
			"count":41,
			"type":"VEC4"
		},
		{
			"bufferView":171,
			"componentType":5126,
			"count":2,
			"type":"VEC3"
		},
		{
			"bufferView":172,
			"componentType":5126,
			"count":2,
			"type":"VEC3"
		},
		{
			"bufferView":173,
			"componentType":5126,
			"count":2,
			"type":"VEC4"
		},
		{
			"bufferView":174,
			"componentType":5126,
			"count":2,
			"type":"VEC3"
		},
		{
			"bufferView":175,
			"componentType":5126,
			"count":41,
			"type":"VEC3"
		},
		{
			"bufferView":176,
			"componentType":5126,
			"count":2,
			"type":"VEC4"
		},
		{
			"bufferView":177,
			"componentType":5126,
			"count":2,
			"type":"VEC3"
		},
		{
			"bufferView":178,
			"componentType":5126,
			"count":2,
			"type":"VEC3"
		},
		{
			"bufferView":179,
			"componentType":5126,
			"count":41,
			"type":"VEC4"
		},
		{
			"bufferView":180,
			"componentType":5126,
			"count":2,
			"type":"VEC3"
		},
		{
			"bufferView":181,
			"componentType":5126,
			"count":2,
			"type":"VEC3"
		},
		{
			"bufferView":182,
			"componentType":5126,
			"count":2,
			"type":"VEC4"
		},
		{
			"bufferView":183,
			"componentType":5126,
			"count":2,
			"type":"VEC3"
		},
		{
			"bufferView":184,
			"componentType":5126,
			"count":41,
			"type":"VEC3"
		},
		{
			"bufferView":185,
			"componentType":5126,
			"count":2,
			"type":"VEC4"
		},
		{
			"bufferView":186,
			"componentType":5126,
			"count":2,
			"type":"VEC3"
		},
		{
			"bufferView":187,
			"componentType":5126,
			"count":2,
			"type":"VEC3"
		},
		{
			"bufferView":188,
			"componentType":5126,
			"count":41,
			"type":"VEC4"
		},
		{
			"bufferView":189,
			"componentType":5126,
			"count":2,
			"type":"VEC3"
		},
		{
			"bufferView":190,
			"componentType":5126,
			"count":2,
			"type":"VEC3"
		},
		{
			"bufferView":191,
			"componentType":5126,
			"count":2,
			"type":"VEC4"
		},
		{
			"bufferView":192,
			"componentType":5126,
			"count":2,
			"type":"VEC3"
		},
		{
			"bufferView":193,
			"componentType":5126,
			"count":41,
			"type":"VEC3"
		},
		{
			"bufferView":194,
			"componentType":5126,
			"count":2,
			"type":"VEC4"
		},
		{
			"bufferView":195,
			"componentType":5126,
			"count":2,
			"type":"VEC3"
		},
		{
			"bufferView":196,
			"componentType":5126,
			"count":41,
			"type":"VEC3"
		},
		{
			"bufferView":197,
			"componentType":5126,
			"count":2,
			"type":"VEC4"
		},
		{
			"bufferView":198,
			"componentType":5126,
			"count":2,
			"type":"VEC3"
		},
		{
			"bufferView":199,
			"componentType":5126,
			"count":2,
			"type":"VEC3"
		},
		{
			"bufferView":200,
			"componentType":5126,
			"count":41,
			"type":"VEC4"
		},
		{
			"bufferView":201,
			"componentType":5126,
			"count":2,
			"type":"VEC3"
		},
		{
			"bufferView":202,
			"componentType":5126,
			"count":2,
			"type":"VEC3"
		},
		{
			"bufferView":203,
			"componentType":5126,
			"count":2,
			"type":"VEC4"
		},
		{
			"bufferView":204,
			"componentType":5126,
			"count":2,
			"type":"VEC3"
		}
	],
	"bufferViews":[
		{
			"buffer":0,
			"byteLength":8880,
			"byteOffset":0,
			"target":34962
		},
		{
			"buffer":0,
			"byteLength":8880,
			"byteOffset":8880,
			"target":34962
		},
		{
			"buffer":0,
			"byteLength":5920,
			"byteOffset":17760,
			"target":34962
		},
		{
			"buffer":0,
			"byteLength":2960,
			"byteOffset":23680,
			"target":34962
		},
		{
			"buffer":0,
			"byteLength":11840,
			"byteOffset":26640,
			"target":34962
		},
		{
			"buffer":0,
			"byteLength":2232,
			"byteOffset":38480,
			"target":34963
		},
		{
			"buffer":0,
			"byteLength":1024,
			"byteOffset":40712
		},
		{
			"buffer":0,
			"byteLength":128,
			"byteOffset":41736
		},
		{
			"buffer":0,
			"byteLength":384,
			"byteOffset":41864
		},
		{
			"buffer":0,
			"byteLength":512,
			"byteOffset":42248
		},
		{
			"buffer":0,
			"byteLength":8,
			"byteOffset":42760
		},
		{
			"buffer":0,
			"byteLength":24,
			"byteOffset":42768
		},
		{
			"buffer":0,
			"byteLength":24,
			"byteOffset":42792
		},
		{
			"buffer":0,
			"byteLength":512,
			"byteOffset":42816
		},
		{
			"buffer":0,
			"byteLength":24,
			"byteOffset":43328
		},
		{
			"buffer":0,
			"byteLength":24,
			"byteOffset":43352
		},
		{
			"buffer":0,
			"byteLength":512,
			"byteOffset":43376
		},
		{
			"buffer":0,
			"byteLength":24,
			"byteOffset":43888
		},
		{
			"buffer":0,
			"byteLength":384,
			"byteOffset":43912
		},
		{
			"buffer":0,
			"byteLength":512,
			"byteOffset":44296
		},
		{
			"buffer":0,
			"byteLength":24,
			"byteOffset":44808
		},
		{
			"buffer":0,
			"byteLength":24,
			"byteOffset":44832
		},
		{
			"buffer":0,
			"byteLength":32,
			"byteOffset":44856
		},
		{
			"buffer":0,
			"byteLength":24,
			"byteOffset":44888
		},
		{
			"buffer":0,
			"byteLength":24,
			"byteOffset":44912
		},
		{
			"buffer":0,
			"byteLength":32,
			"byteOffset":44936
		},
		{
			"buffer":0,
			"byteLength":24,
			"byteOffset":44968
		},
		{
			"buffer":0,
			"byteLength":384,
			"byteOffset":44992
		},
		{
			"buffer":0,
			"byteLength":512,
			"byteOffset":45376
		},
		{
			"buffer":0,
			"byteLength":24,
			"byteOffset":45888
		},
		{
			"buffer":0,
			"byteLength":24,
			"byteOffset":45912
		},
		{
			"buffer":0,
			"byteLength":32,
			"byteOffset":45936
		},
		{
			"buffer":0,
			"byteLength":24,
			"byteOffset":45968
		},
		{
			"buffer":0,
			"byteLength":24,
			"byteOffset":45992
		},
		{
			"buffer":0,
			"byteLength":32,
			"byteOffset":46016
		},
		{
			"buffer":0,
			"byteLength":24,
			"byteOffset":46048
		},
		{
			"buffer":0,
			"byteLength":384,
			"byteOffset":46072
		},
		{
			"buffer":0,
			"byteLength":512,
			"byteOffset":46456
		},
		{
			"buffer":0,
			"byteLength":24,
			"byteOffset":46968
		},
		{
			"buffer":0,
			"byteLength":24,
			"byteOffset":46992
		},
		{
			"buffer":0,
			"byteLength":32,
			"byteOffset":47016
		},
		{
			"buffer":0,
			"byteLength":24,
			"byteOffset":47048
		},
		{
			"buffer":0,
			"byteLength":24,
			"byteOffset":47072
		},
		{
			"buffer":0,
			"byteLength":32,
			"byteOffset":47096
		},
		{
			"buffer":0,
			"byteLength":24,
			"byteOffset":47128
		},
		{
			"buffer":0,
			"byteLength":384,
			"byteOffset":47152
		},
		{
			"buffer":0,
			"byteLength":512,
			"byteOffset":47536
		},
		{
			"buffer":0,
			"byteLength":24,
			"byteOffset":48048
		},
		{
			"buffer":0,
			"byteLength":384,
			"byteOffset":48072
		},
		{
			"buffer":0,
			"byteLength":512,
			"byteOffset":48456
		},
		{
			"buffer":0,
			"byteLength":24,
			"byteOffset":48968
		},
		{
			"buffer":0,
			"byteLength":24,
			"byteOffset":48992
		},
		{
			"buffer":0,
			"byteLength":512,
			"byteOffset":49016
		},
		{
			"buffer":0,
			"byteLength":24,
			"byteOffset":49528
		},
		{
			"buffer":0,
			"byteLength":24,
			"byteOffset":49552
		},
		{
			"buffer":0,
			"byteLength":512,
			"byteOffset":49576
		},
		{
			"buffer":0,
			"byteLength":24,
			"byteOffset":50088
		},
		{
			"buffer":0,
			"byteLength":8,
			"byteOffset":50112
		},
		{
			"buffer":0,
			"byteLength":24,
			"byteOffset":50120
		},
		{
			"buffer":0,
			"byteLength":44,
			"byteOffset":50144
		},
		{
			"buffer":0,
			"byteLength":176,
			"byteOffset":50188
		},
		{
			"buffer":0,
			"byteLength":24,
			"byteOffset":50364
		},
		{
			"buffer":0,
			"byteLength":24,
			"byteOffset":50388
		},
		{
			"buffer":0,
			"byteLength":32,
			"byteOffset":50412
		},
		{
			"buffer":0,
			"byteLength":24,
			"byteOffset":50444
		},
		{
			"buffer":0,
			"byteLength":24,
			"byteOffset":50468
		},
		{
			"buffer":0,
			"byteLength":32,
			"byteOffset":50492
		},
		{
			"buffer":0,
			"byteLength":24,
			"byteOffset":50524
		},
		{
			"buffer":0,
			"byteLength":24,
			"byteOffset":50548
		},
		{
			"buffer":0,
			"byteLength":176,
			"byteOffset":50572
		},
		{
			"buffer":0,
			"byteLength":24,
			"byteOffset":50748
		},
		{
			"buffer":0,
			"byteLength":24,
			"byteOffset":50772
		},
		{
			"buffer":0,
			"byteLength":176,
			"byteOffset":50796
		},
		{
			"buffer":0,
			"byteLength":24,
			"byteOffset":50972
		},
		{
			"buffer":0,
			"byteLength":24,
			"byteOffset":50996
		},
		{
			"buffer":0,
			"byteLength":176,
			"byteOffset":51020
		},
		{
			"buffer":0,
			"byteLength":24,
			"byteOffset":51196
		},
		{
			"buffer":0,
			"byteLength":24,
			"byteOffset":51220
		},
		{
			"buffer":0,
			"byteLength":176,
			"byteOffset":51244
		},
		{
			"buffer":0,
			"byteLength":24,
			"byteOffset":51420
		},
		{
			"buffer":0,
			"byteLength":24,
			"byteOffset":51444
		},
		{
			"buffer":0,
			"byteLength":176,
			"byteOffset":51468
		},
		{
			"buffer":0,
			"byteLength":24,
			"byteOffset":51644
		},
		{
			"buffer":0,
			"byteLength":24,
			"byteOffset":51668
		},
		{
			"buffer":0,
			"byteLength":176,
			"byteOffset":51692
		},
		{
			"buffer":0,
			"byteLength":24,
			"byteOffset":51868
		},
		{
			"buffer":0,
			"byteLength":24,
			"byteOffset":51892
		},
		{
			"buffer":0,
			"byteLength":176,
			"byteOffset":51916
		},
		{
			"buffer":0,
			"byteLength":24,
			"byteOffset":52092
		},
		{
			"buffer":0,
			"byteLength":24,
			"byteOffset":52116
		},
		{
			"buffer":0,
			"byteLength":176,
			"byteOffset":52140
		},
		{
			"buffer":0,
			"byteLength":24,
			"byteOffset":52316
		},
		{
			"buffer":0,
			"byteLength":24,
			"byteOffset":52340
		},
		{
			"buffer":0,
			"byteLength":176,
			"byteOffset":52364
		},
		{
			"buffer":0,
			"byteLength":24,
			"byteOffset":52540
		},
		{
			"buffer":0,
			"byteLength":24,
			"byteOffset":52564
		},
		{
			"buffer":0,
			"byteLength":32,
			"byteOffset":52588
		},
		{
			"buffer":0,
			"byteLength":24,
			"byteOffset":52620
		},
		{
			"buffer":0,
			"byteLength":24,
			"byteOffset":52644
		},
		{
			"buffer":0,
			"byteLength":32,
			"byteOffset":52668
		},
		{
			"buffer":0,
			"byteLength":24,
			"byteOffset":52700
		},
		{
			"buffer":0,
			"byteLength":24,
			"byteOffset":52724
		},
		{
			"buffer":0,
			"byteLength":176,
			"byteOffset":52748
		},
		{
			"buffer":0,
			"byteLength":24,
			"byteOffset":52924
		},
		{
			"buffer":0,
			"byteLength":24,
			"byteOffset":52948
		},
		{
			"buffer":0,
			"byteLength":32,
			"byteOffset":52972
		},
		{
			"buffer":0,
			"byteLength":24,
			"byteOffset":53004
		},
		{
			"buffer":0,
			"byteLength":24,
			"byteOffset":53028
		},
		{
			"buffer":0,
			"byteLength":176,
			"byteOffset":53052
		},
		{
			"buffer":0,
			"byteLength":24,
			"byteOffset":53228
		},
		{
			"buffer":0,
			"byteLength":24,
			"byteOffset":53252
		},
		{
			"buffer":0,
			"byteLength":32,
			"byteOffset":53276
		},
		{
			"buffer":0,
			"byteLength":24,
			"byteOffset":53308
		},
		{
			"buffer":0,
			"byteLength":24,
			"byteOffset":53332
		},
		{
			"buffer":0,
			"byteLength":32,
			"byteOffset":53356
		},
		{
			"buffer":0,
			"byteLength":24,
			"byteOffset":53388
		},
		{
			"buffer":0,
			"byteLength":24,
			"byteOffset":53412
		},
		{
			"buffer":0,
			"byteLength":176,
			"byteOffset":53436
		},
		{
			"buffer":0,
			"byteLength":24,
			"byteOffset":53612
		},
		{
			"buffer":0,
			"byteLength":24,
			"byteOffset":53636
		},
		{
			"buffer":0,
			"byteLength":176,
			"byteOffset":53660
		},
		{
			"buffer":0,
			"byteLength":24,
			"byteOffset":53836
		},
		{
			"buffer":0,
			"byteLength":24,
			"byteOffset":53860
		},
		{
			"buffer":0,
			"byteLength":176,
			"byteOffset":53884
		},
		{
			"buffer":0,
			"byteLength":24,
			"byteOffset":54060
		},
		{
			"buffer":0,
			"byteLength":24,
			"byteOffset":54084
		},
		{
			"buffer":0,
			"byteLength":176,
			"byteOffset":54108
		},
		{
			"buffer":0,
			"byteLength":24,
			"byteOffset":54284
		},
		{
			"buffer":0,
			"byteLength":24,
			"byteOffset":54308
		},
		{
			"buffer":0,
			"byteLength":176,
			"byteOffset":54332
		},
		{
			"buffer":0,
			"byteLength":24,
			"byteOffset":54508
		},
		{
			"buffer":0,
			"byteLength":24,
			"byteOffset":54532
		},
		{
			"buffer":0,
			"byteLength":176,
			"byteOffset":54556
		},
		{
			"buffer":0,
			"byteLength":24,
			"byteOffset":54732
		},
		{
			"buffer":0,
			"byteLength":24,
			"byteOffset":54756
		},
		{
			"buffer":0,
			"byteLength":176,
			"byteOffset":54780
		},
		{
			"buffer":0,
			"byteLength":24,
			"byteOffset":54956
		},
		{
			"buffer":0,
			"byteLength":24,
			"byteOffset":54980
		},
		{
			"buffer":0,
			"byteLength":176,
			"byteOffset":55004
		},
		{
			"buffer":0,
			"byteLength":24,
			"byteOffset":55180
		},
		{
			"buffer":0,
			"byteLength":24,
			"byteOffset":55204
		},
		{
			"buffer":0,
			"byteLength":176,
			"byteOffset":55228
		},
		{
			"buffer":0,
			"byteLength":24,
			"byteOffset":55404
		},
		{
			"buffer":0,
			"byteLength":24,
			"byteOffset":55428
		},
		{
			"buffer":0,
			"byteLength":32,
			"byteOffset":55452
		},
		{
			"buffer":0,
			"byteLength":24,
			"byteOffset":55484
		},
		{
			"buffer":0,
			"byteLength":24,
			"byteOffset":55508
		},
		{
			"buffer":0,
			"byteLength":32,
			"byteOffset":55532
		},
		{
			"buffer":0,
			"byteLength":24,
			"byteOffset":55564
		},
		{
			"buffer":0,
			"byteLength":24,
			"byteOffset":55588
		},
		{
			"buffer":0,
			"byteLength":176,
			"byteOffset":55612
		},
		{
			"buffer":0,
			"byteLength":24,
			"byteOffset":55788
		},
		{
			"buffer":0,
			"byteLength":24,
			"byteOffset":55812
		},
		{
			"buffer":0,
			"byteLength":32,
			"byteOffset":55836
		},
		{
			"buffer":0,
			"byteLength":24,
			"byteOffset":55868
		},
		{
			"buffer":0,
			"byteLength":164,
			"byteOffset":55892
		},
		{
			"buffer":0,
			"byteLength":492,
			"byteOffset":56056
		},
		{
			"buffer":0,
			"byteLength":8,
			"byteOffset":56548
		},
		{
			"buffer":0,
			"byteLength":32,
			"byteOffset":56556
		},
		{
			"buffer":0,
			"byteLength":24,
			"byteOffset":56588
		},
		{
			"buffer":0,
			"byteLength":24,
			"byteOffset":56612
		},
		{
			"buffer":0,
			"byteLength":656,
			"byteOffset":56636
		},
		{
			"buffer":0,
			"byteLength":24,
			"byteOffset":57292
		},
		{
			"buffer":0,
			"byteLength":24,
			"byteOffset":57316
		},
		{
			"buffer":0,
			"byteLength":32,
			"byteOffset":57340
		},
		{
			"buffer":0,
			"byteLength":24,
			"byteOffset":57372
		},
		{
			"buffer":0,
			"byteLength":492,
			"byteOffset":57396
		},
		{
			"buffer":0,
			"byteLength":32,
			"byteOffset":57888
		},
		{
			"buffer":0,
			"byteLength":24,
			"byteOffset":57920
		},
		{
			"buffer":0,
			"byteLength":24,
			"byteOffset":57944
		},
		{
			"buffer":0,
			"byteLength":656,
			"byteOffset":57968
		},
		{
			"buffer":0,
			"byteLength":24,
			"byteOffset":58624
		},
		{
			"buffer":0,
			"byteLength":24,
			"byteOffset":58648
		},
		{
			"buffer":0,
			"byteLength":32,
			"byteOffset":58672
		},
		{
			"buffer":0,
			"byteLength":24,
			"byteOffset":58704
		},
		{
			"buffer":0,
			"byteLength":492,
			"byteOffset":58728
		},
		{
			"buffer":0,
			"byteLength":32,
			"byteOffset":59220
		},
		{
			"buffer":0,
			"byteLength":24,
			"byteOffset":59252
		},
		{
			"buffer":0,
			"byteLength":24,
			"byteOffset":59276
		},
		{
			"buffer":0,
			"byteLength":656,
			"byteOffset":59300
		},
		{
			"buffer":0,
			"byteLength":24,
			"byteOffset":59956
		},
		{
			"buffer":0,
			"byteLength":24,
			"byteOffset":59980
		},
		{
			"buffer":0,
			"byteLength":32,
			"byteOffset":60004
		},
		{
			"buffer":0,
			"byteLength":24,
			"byteOffset":60036
		},
		{
			"buffer":0,
			"byteLength":492,
			"byteOffset":60060
		},
		{
			"buffer":0,
			"byteLength":32,
			"byteOffset":60552
		},
		{
			"buffer":0,
			"byteLength":24,
			"byteOffset":60584
		},
		{
			"buffer":0,
			"byteLength":24,
			"byteOffset":60608
		},
		{
			"buffer":0,
			"byteLength":656,
			"byteOffset":60632
		},
		{
			"buffer":0,
			"byteLength":24,
			"byteOffset":61288
		},
		{
			"buffer":0,
			"byteLength":24,
			"byteOffset":61312
		},
		{
			"buffer":0,
			"byteLength":32,
			"byteOffset":61336
		},
		{
			"buffer":0,
			"byteLength":24,
			"byteOffset":61368
		},
		{
			"buffer":0,
			"byteLength":492,
			"byteOffset":61392
		},
		{
			"buffer":0,
			"byteLength":32,
			"byteOffset":61884
		},
		{
			"buffer":0,
			"byteLength":24,
			"byteOffset":61916
		},
		{
			"buffer":0,
			"byteLength":492,
			"byteOffset":61940
		},
		{
			"buffer":0,
			"byteLength":32,
			"byteOffset":62432
		},
		{
			"buffer":0,
			"byteLength":24,
			"byteOffset":62464
		},
		{
			"buffer":0,
			"byteLength":24,
			"byteOffset":62488
		},
		{
			"buffer":0,
			"byteLength":656,
			"byteOffset":62512
		},
		{
			"buffer":0,
			"byteLength":24,
			"byteOffset":63168
		},
		{
			"buffer":0,
			"byteLength":24,
			"byteOffset":63192
		},
		{
			"buffer":0,
			"byteLength":32,
			"byteOffset":63216
		},
		{
			"buffer":0,
			"byteLength":24,
			"byteOffset":63248
		}
	],
	"samplers":[
		{
			"magFilter":9729,
			"minFilter":9987
		}
	],
	"buffers":[
		{
			"byteLength":63272,
			"uri":"hand.bin"
		}
	]
}
